%TF.GenerationSoftware,KiCad,Pcbnew,7.0.7*%
%TF.CreationDate,2024-09-01T12:40:49+02:00*%
%TF.ProjectId,main,6d61696e-2e6b-4696-9361-645f70636258,rev?*%
%TF.SameCoordinates,Original*%
%TF.FileFunction,Paste,Bot*%
%TF.FilePolarity,Positive*%
%FSLAX46Y46*%
G04 Gerber Fmt 4.6, Leading zero omitted, Abs format (unit mm)*
G04 Created by KiCad (PCBNEW 7.0.7) date 2024-09-01 12:40:49*
%MOMM*%
%LPD*%
G01*
G04 APERTURE LIST*
G04 Aperture macros list*
%AMRoundRect*
0 Rectangle with rounded corners*
0 $1 Rounding radius*
0 $2 $3 $4 $5 $6 $7 $8 $9 X,Y pos of 4 corners*
0 Add a 4 corners polygon primitive as box body*
4,1,4,$2,$3,$4,$5,$6,$7,$8,$9,$2,$3,0*
0 Add four circle primitives for the rounded corners*
1,1,$1+$1,$2,$3*
1,1,$1+$1,$4,$5*
1,1,$1+$1,$6,$7*
1,1,$1+$1,$8,$9*
0 Add four rect primitives between the rounded corners*
20,1,$1+$1,$2,$3,$4,$5,0*
20,1,$1+$1,$4,$5,$6,$7,0*
20,1,$1+$1,$6,$7,$8,$9,0*
20,1,$1+$1,$8,$9,$2,$3,0*%
G04 Aperture macros list end*
%ADD10RoundRect,0.137500X-0.662500X-0.137500X0.662500X-0.137500X0.662500X0.137500X-0.662500X0.137500X0*%
%ADD11RoundRect,0.200000X0.275000X-0.200000X0.275000X0.200000X-0.275000X0.200000X-0.275000X-0.200000X0*%
%ADD12RoundRect,0.250000X-1.250000X-0.550000X1.250000X-0.550000X1.250000X0.550000X-1.250000X0.550000X0*%
%ADD13RoundRect,0.225000X-0.225000X-0.250000X0.225000X-0.250000X0.225000X0.250000X-0.225000X0.250000X0*%
%ADD14RoundRect,0.200000X0.200000X0.275000X-0.200000X0.275000X-0.200000X-0.275000X0.200000X-0.275000X0*%
%ADD15RoundRect,0.225000X0.250000X-0.225000X0.250000X0.225000X-0.250000X0.225000X-0.250000X-0.225000X0*%
%ADD16RoundRect,0.250000X0.550000X-1.050000X0.550000X1.050000X-0.550000X1.050000X-0.550000X-1.050000X0*%
%ADD17RoundRect,0.200000X-0.275000X0.200000X-0.275000X-0.200000X0.275000X-0.200000X0.275000X0.200000X0*%
%ADD18R,1.850000X0.900000*%
%ADD19R,1.850000X3.200000*%
%ADD20RoundRect,0.250000X1.050000X0.550000X-1.050000X0.550000X-1.050000X-0.550000X1.050000X-0.550000X0*%
G04 APERTURE END LIST*
D10*
%TO.C,U2*%
X129030500Y-112890000D03*
X129030500Y-110350000D03*
X135530500Y-110350000D03*
X135530500Y-112890000D03*
%TD*%
D11*
%TO.C,R16*%
X127105500Y-114545000D03*
X127105500Y-112895000D03*
%TD*%
D12*
%TO.C,C12*%
X132177500Y-142990000D03*
X136577500Y-142990000D03*
%TD*%
D13*
%TO.C,C17*%
X132280500Y-138815000D03*
X133830500Y-138815000D03*
%TD*%
D14*
%TO.C,R19*%
X139077500Y-110295000D03*
X137427500Y-110295000D03*
%TD*%
D15*
%TO.C,C23*%
X128780500Y-132040000D03*
X128780500Y-130490000D03*
%TD*%
D11*
%TO.C,R17*%
X127055500Y-125920000D03*
X127055500Y-124270000D03*
%TD*%
D16*
%TO.C,C22*%
X134530500Y-135440000D03*
X134530500Y-131840000D03*
%TD*%
D10*
%TO.C,U4*%
X129030500Y-118315000D03*
X129030500Y-115775000D03*
X135530500Y-115775000D03*
X135530500Y-118315000D03*
%TD*%
D15*
%TO.C,C11*%
X126780500Y-132015000D03*
X126780500Y-130465000D03*
%TD*%
D10*
%TO.C,U3*%
X128955500Y-124315000D03*
X128955500Y-121775000D03*
X135455500Y-121775000D03*
X135455500Y-124315000D03*
%TD*%
D17*
%TO.C,R31*%
X137355500Y-114020000D03*
X137355500Y-115670000D03*
%TD*%
D15*
%TO.C,C13*%
X124780500Y-132015000D03*
X124780500Y-130465000D03*
%TD*%
D18*
%TO.C,IC1*%
X130130500Y-134165000D03*
X130130500Y-136465000D03*
X130130500Y-138765000D03*
D19*
X123930500Y-136465000D03*
%TD*%
D17*
%TO.C,R18*%
X137380500Y-119870000D03*
X137380500Y-121520000D03*
%TD*%
D20*
%TO.C,C14*%
X128827500Y-142945000D03*
X125227500Y-142945000D03*
%TD*%
D11*
%TO.C,R20*%
X127030500Y-120095000D03*
X127030500Y-118445000D03*
%TD*%
D18*
%TO.C,IC1*%
X130103000Y-92720000D03*
X130103000Y-95020000D03*
X130103000Y-97320000D03*
D19*
X123903000Y-95020000D03*
%TD*%
D15*
%TO.C,C11*%
X126753000Y-90570000D03*
X126753000Y-89020000D03*
%TD*%
%TO.C,C13*%
X124753000Y-90570000D03*
X124753000Y-89020000D03*
%TD*%
D10*
%TO.C,U4*%
X129003000Y-76870000D03*
X129003000Y-74330000D03*
X135503000Y-74330000D03*
X135503000Y-76870000D03*
%TD*%
D16*
%TO.C,C22*%
X134503000Y-93995000D03*
X134503000Y-90395000D03*
%TD*%
D17*
%TO.C,R31*%
X137328000Y-72575000D03*
X137328000Y-74225000D03*
%TD*%
D11*
%TO.C,R17*%
X127028000Y-84475000D03*
X127028000Y-82825000D03*
%TD*%
D10*
%TO.C,U3*%
X128928000Y-82870000D03*
X128928000Y-80330000D03*
X135428000Y-80330000D03*
X135428000Y-82870000D03*
%TD*%
D15*
%TO.C,C23*%
X128753000Y-90595000D03*
X128753000Y-89045000D03*
%TD*%
D14*
%TO.C,R19*%
X139050000Y-68850000D03*
X137400000Y-68850000D03*
%TD*%
D13*
%TO.C,C17*%
X132253000Y-97370000D03*
X133803000Y-97370000D03*
%TD*%
D12*
%TO.C,C12*%
X132150000Y-101545000D03*
X136550000Y-101545000D03*
%TD*%
D11*
%TO.C,R16*%
X127078000Y-73100000D03*
X127078000Y-71450000D03*
%TD*%
D10*
%TO.C,U2*%
X129003000Y-71445000D03*
X129003000Y-68905000D03*
X135503000Y-68905000D03*
X135503000Y-71445000D03*
%TD*%
D20*
%TO.C,C14*%
X128800000Y-101500000D03*
X125200000Y-101500000D03*
%TD*%
D17*
%TO.C,R18*%
X137353000Y-78425000D03*
X137353000Y-80075000D03*
%TD*%
D11*
%TO.C,R20*%
X127003000Y-78650000D03*
X127003000Y-77000000D03*
%TD*%
M02*
