%TF.GenerationSoftware,KiCad,Pcbnew,7.0.7*%
%TF.CreationDate,2024-09-01T12:40:49+02:00*%
%TF.ProjectId,main,6d61696e-2e6b-4696-9361-645f70636258,rev?*%
%TF.SameCoordinates,Original*%
%TF.FileFunction,Legend,Bot*%
%TF.FilePolarity,Positive*%
%FSLAX46Y46*%
G04 Gerber Fmt 4.6, Leading zero omitted, Abs format (unit mm)*
G04 Created by KiCad (PCBNEW 7.0.7) date 2024-09-01 12:40:49*
%MOMM*%
%LPD*%
G01*
G04 APERTURE LIST*
G04 Aperture macros list*
%AMRoundRect*
0 Rectangle with rounded corners*
0 $1 Rounding radius*
0 $2 $3 $4 $5 $6 $7 $8 $9 X,Y pos of 4 corners*
0 Add a 4 corners polygon primitive as box body*
4,1,4,$2,$3,$4,$5,$6,$7,$8,$9,$2,$3,0*
0 Add four circle primitives for the rounded corners*
1,1,$1+$1,$2,$3*
1,1,$1+$1,$4,$5*
1,1,$1+$1,$6,$7*
1,1,$1+$1,$8,$9*
0 Add four rect primitives between the rounded corners*
20,1,$1+$1,$2,$3,$4,$5,0*
20,1,$1+$1,$4,$5,$6,$7,0*
20,1,$1+$1,$6,$7,$8,$9,0*
20,1,$1+$1,$8,$9,$2,$3,0*%
G04 Aperture macros list end*
%ADD10C,0.150000*%
%ADD11C,0.254000*%
%ADD12C,0.120000*%
%ADD13C,0.200000*%
%ADD14RoundRect,0.137500X-0.662500X-0.137500X0.662500X-0.137500X0.662500X0.137500X-0.662500X0.137500X0*%
%ADD15RoundRect,0.200000X0.275000X-0.200000X0.275000X0.200000X-0.275000X0.200000X-0.275000X-0.200000X0*%
%ADD16RoundRect,0.250000X-1.250000X-0.550000X1.250000X-0.550000X1.250000X0.550000X-1.250000X0.550000X0*%
%ADD17RoundRect,0.225000X-0.225000X-0.250000X0.225000X-0.250000X0.225000X0.250000X-0.225000X0.250000X0*%
%ADD18RoundRect,0.200000X0.200000X0.275000X-0.200000X0.275000X-0.200000X-0.275000X0.200000X-0.275000X0*%
%ADD19RoundRect,0.225000X0.250000X-0.225000X0.250000X0.225000X-0.250000X0.225000X-0.250000X-0.225000X0*%
%ADD20RoundRect,0.250000X0.550000X-1.050000X0.550000X1.050000X-0.550000X1.050000X-0.550000X-1.050000X0*%
%ADD21R,1.700000X1.700000*%
%ADD22O,1.700000X1.700000*%
%ADD23RoundRect,0.200000X-0.275000X0.200000X-0.275000X-0.200000X0.275000X-0.200000X0.275000X0.200000X0*%
%ADD24R,1.400000X1.400000*%
%ADD25C,1.400000*%
%ADD26C,4.650000*%
%ADD27R,1.500000X1.500000*%
%ADD28C,1.500000*%
%ADD29C,4.567000*%
%ADD30R,1.850000X0.900000*%
%ADD31R,1.850000X3.200000*%
%ADD32RoundRect,0.250000X1.050000X0.550000X-1.050000X0.550000X-1.050000X-0.550000X1.050000X-0.550000X0*%
G04 APERTURE END LIST*
D10*
X108175000Y-93750000D02*
X123425000Y-93750000D01*
X108075000Y-99775000D02*
X123325000Y-99775000D01*
X117030704Y-67854887D02*
X117030704Y-68235839D01*
X117030704Y-68235839D02*
X117830704Y-68235839D01*
X117830704Y-67435839D02*
X117830704Y-67283458D01*
X117830704Y-67283458D02*
X117792609Y-67207268D01*
X117792609Y-67207268D02*
X117716419Y-67131077D01*
X117716419Y-67131077D02*
X117564038Y-67092982D01*
X117564038Y-67092982D02*
X117297371Y-67092982D01*
X117297371Y-67092982D02*
X117144990Y-67131077D01*
X117144990Y-67131077D02*
X117068800Y-67207268D01*
X117068800Y-67207268D02*
X117030704Y-67283458D01*
X117030704Y-67283458D02*
X117030704Y-67435839D01*
X117030704Y-67435839D02*
X117068800Y-67512030D01*
X117068800Y-67512030D02*
X117144990Y-67588220D01*
X117144990Y-67588220D02*
X117297371Y-67626316D01*
X117297371Y-67626316D02*
X117564038Y-67626316D01*
X117564038Y-67626316D02*
X117716419Y-67588220D01*
X117716419Y-67588220D02*
X117792609Y-67512030D01*
X117792609Y-67512030D02*
X117830704Y-67435839D01*
X117830704Y-66864411D02*
X117830704Y-66407268D01*
X117030704Y-66635840D02*
X117830704Y-66635840D01*
X121980704Y-68110839D02*
X122780704Y-68110839D01*
X122780704Y-68110839D02*
X122780704Y-67920363D01*
X122780704Y-67920363D02*
X122742609Y-67806077D01*
X122742609Y-67806077D02*
X122666419Y-67729887D01*
X122666419Y-67729887D02*
X122590228Y-67691792D01*
X122590228Y-67691792D02*
X122437847Y-67653696D01*
X122437847Y-67653696D02*
X122323561Y-67653696D01*
X122323561Y-67653696D02*
X122171180Y-67691792D01*
X122171180Y-67691792D02*
X122094990Y-67729887D01*
X122094990Y-67729887D02*
X122018800Y-67806077D01*
X122018800Y-67806077D02*
X121980704Y-67920363D01*
X121980704Y-67920363D02*
X121980704Y-68110839D01*
X121980704Y-67310839D02*
X122780704Y-67310839D01*
X121980704Y-66472744D02*
X122361657Y-66739411D01*
X121980704Y-66929887D02*
X122780704Y-66929887D01*
X122780704Y-66929887D02*
X122780704Y-66625125D01*
X122780704Y-66625125D02*
X122742609Y-66548935D01*
X122742609Y-66548935D02*
X122704514Y-66510840D01*
X122704514Y-66510840D02*
X122628323Y-66472744D01*
X122628323Y-66472744D02*
X122514038Y-66472744D01*
X122514038Y-66472744D02*
X122437847Y-66510840D01*
X122437847Y-66510840D02*
X122399752Y-66548935D01*
X122399752Y-66548935D02*
X122361657Y-66625125D01*
X122361657Y-66625125D02*
X122361657Y-66929887D01*
X114530704Y-68335839D02*
X115330704Y-68335839D01*
X115330704Y-68335839D02*
X115330704Y-68145363D01*
X115330704Y-68145363D02*
X115292609Y-68031077D01*
X115292609Y-68031077D02*
X115216419Y-67954887D01*
X115216419Y-67954887D02*
X115140228Y-67916792D01*
X115140228Y-67916792D02*
X114987847Y-67878696D01*
X114987847Y-67878696D02*
X114873561Y-67878696D01*
X114873561Y-67878696D02*
X114721180Y-67916792D01*
X114721180Y-67916792D02*
X114644990Y-67954887D01*
X114644990Y-67954887D02*
X114568800Y-68031077D01*
X114568800Y-68031077D02*
X114530704Y-68145363D01*
X114530704Y-68145363D02*
X114530704Y-68335839D01*
X115330704Y-67383458D02*
X115330704Y-67231077D01*
X115330704Y-67231077D02*
X115292609Y-67154887D01*
X115292609Y-67154887D02*
X115216419Y-67078696D01*
X115216419Y-67078696D02*
X115064038Y-67040601D01*
X115064038Y-67040601D02*
X114797371Y-67040601D01*
X114797371Y-67040601D02*
X114644990Y-67078696D01*
X114644990Y-67078696D02*
X114568800Y-67154887D01*
X114568800Y-67154887D02*
X114530704Y-67231077D01*
X114530704Y-67231077D02*
X114530704Y-67383458D01*
X114530704Y-67383458D02*
X114568800Y-67459649D01*
X114568800Y-67459649D02*
X114644990Y-67535839D01*
X114644990Y-67535839D02*
X114797371Y-67573935D01*
X114797371Y-67573935D02*
X115064038Y-67573935D01*
X115064038Y-67573935D02*
X115216419Y-67535839D01*
X115216419Y-67535839D02*
X115292609Y-67459649D01*
X115292609Y-67459649D02*
X115330704Y-67383458D01*
X114568800Y-66735840D02*
X114530704Y-66621554D01*
X114530704Y-66621554D02*
X114530704Y-66431078D01*
X114530704Y-66431078D02*
X114568800Y-66354887D01*
X114568800Y-66354887D02*
X114606895Y-66316792D01*
X114606895Y-66316792D02*
X114683085Y-66278697D01*
X114683085Y-66278697D02*
X114759276Y-66278697D01*
X114759276Y-66278697D02*
X114835466Y-66316792D01*
X114835466Y-66316792D02*
X114873561Y-66354887D01*
X114873561Y-66354887D02*
X114911657Y-66431078D01*
X114911657Y-66431078D02*
X114949752Y-66583459D01*
X114949752Y-66583459D02*
X114987847Y-66659649D01*
X114987847Y-66659649D02*
X115025942Y-66697744D01*
X115025942Y-66697744D02*
X115102133Y-66735840D01*
X115102133Y-66735840D02*
X115178323Y-66735840D01*
X115178323Y-66735840D02*
X115254514Y-66697744D01*
X115254514Y-66697744D02*
X115292609Y-66659649D01*
X115292609Y-66659649D02*
X115330704Y-66583459D01*
X115330704Y-66583459D02*
X115330704Y-66392982D01*
X115330704Y-66392982D02*
X115292609Y-66278697D01*
X116827800Y-99060839D02*
X116780180Y-98917982D01*
X116780180Y-98917982D02*
X116780180Y-98679887D01*
X116780180Y-98679887D02*
X116827800Y-98584649D01*
X116827800Y-98584649D02*
X116875419Y-98537030D01*
X116875419Y-98537030D02*
X116970657Y-98489411D01*
X116970657Y-98489411D02*
X117065895Y-98489411D01*
X117065895Y-98489411D02*
X117161133Y-98537030D01*
X117161133Y-98537030D02*
X117208752Y-98584649D01*
X117208752Y-98584649D02*
X117256371Y-98679887D01*
X117256371Y-98679887D02*
X117303990Y-98870363D01*
X117303990Y-98870363D02*
X117351609Y-98965601D01*
X117351609Y-98965601D02*
X117399228Y-99013220D01*
X117399228Y-99013220D02*
X117494466Y-99060839D01*
X117494466Y-99060839D02*
X117589704Y-99060839D01*
X117589704Y-99060839D02*
X117684942Y-99013220D01*
X117684942Y-99013220D02*
X117732561Y-98965601D01*
X117732561Y-98965601D02*
X117780180Y-98870363D01*
X117780180Y-98870363D02*
X117780180Y-98632268D01*
X117780180Y-98632268D02*
X117732561Y-98489411D01*
X117780180Y-97870363D02*
X117780180Y-97679887D01*
X117780180Y-97679887D02*
X117732561Y-97584649D01*
X117732561Y-97584649D02*
X117637323Y-97489411D01*
X117637323Y-97489411D02*
X117446847Y-97441792D01*
X117446847Y-97441792D02*
X117113514Y-97441792D01*
X117113514Y-97441792D02*
X116923038Y-97489411D01*
X116923038Y-97489411D02*
X116827800Y-97584649D01*
X116827800Y-97584649D02*
X116780180Y-97679887D01*
X116780180Y-97679887D02*
X116780180Y-97870363D01*
X116780180Y-97870363D02*
X116827800Y-97965601D01*
X116827800Y-97965601D02*
X116923038Y-98060839D01*
X116923038Y-98060839D02*
X117113514Y-98108458D01*
X117113514Y-98108458D02*
X117446847Y-98108458D01*
X117446847Y-98108458D02*
X117637323Y-98060839D01*
X117637323Y-98060839D02*
X117732561Y-97965601D01*
X117732561Y-97965601D02*
X117780180Y-97870363D01*
X117303990Y-97013220D02*
X117303990Y-96679887D01*
X116780180Y-96537030D02*
X116780180Y-97013220D01*
X116780180Y-97013220D02*
X117780180Y-97013220D01*
X117780180Y-97013220D02*
X117780180Y-96537030D01*
X108930180Y-98716792D02*
X109406371Y-99050125D01*
X108930180Y-99288220D02*
X109930180Y-99288220D01*
X109930180Y-99288220D02*
X109930180Y-98907268D01*
X109930180Y-98907268D02*
X109882561Y-98812030D01*
X109882561Y-98812030D02*
X109834942Y-98764411D01*
X109834942Y-98764411D02*
X109739704Y-98716792D01*
X109739704Y-98716792D02*
X109596847Y-98716792D01*
X109596847Y-98716792D02*
X109501609Y-98764411D01*
X109501609Y-98764411D02*
X109453990Y-98812030D01*
X109453990Y-98812030D02*
X109406371Y-98907268D01*
X109406371Y-98907268D02*
X109406371Y-99288220D01*
X109453990Y-98288220D02*
X109453990Y-97954887D01*
X108930180Y-97812030D02*
X108930180Y-98288220D01*
X108930180Y-98288220D02*
X109930180Y-98288220D01*
X109930180Y-98288220D02*
X109930180Y-97812030D01*
X109453990Y-97050125D02*
X109453990Y-97383458D01*
X108930180Y-97383458D02*
X109930180Y-97383458D01*
X109930180Y-97383458D02*
X109930180Y-96907268D01*
X109930180Y-96335839D02*
X109930180Y-96145363D01*
X109930180Y-96145363D02*
X109882561Y-96050125D01*
X109882561Y-96050125D02*
X109787323Y-95954887D01*
X109787323Y-95954887D02*
X109596847Y-95907268D01*
X109596847Y-95907268D02*
X109263514Y-95907268D01*
X109263514Y-95907268D02*
X109073038Y-95954887D01*
X109073038Y-95954887D02*
X108977800Y-96050125D01*
X108977800Y-96050125D02*
X108930180Y-96145363D01*
X108930180Y-96145363D02*
X108930180Y-96335839D01*
X108930180Y-96335839D02*
X108977800Y-96431077D01*
X108977800Y-96431077D02*
X109073038Y-96526315D01*
X109073038Y-96526315D02*
X109263514Y-96573934D01*
X109263514Y-96573934D02*
X109596847Y-96573934D01*
X109596847Y-96573934D02*
X109787323Y-96526315D01*
X109787323Y-96526315D02*
X109882561Y-96431077D01*
X109882561Y-96431077D02*
X109930180Y-96335839D01*
X109930180Y-95478696D02*
X109120657Y-95478696D01*
X109120657Y-95478696D02*
X109025419Y-95431077D01*
X109025419Y-95431077D02*
X108977800Y-95383458D01*
X108977800Y-95383458D02*
X108930180Y-95288220D01*
X108930180Y-95288220D02*
X108930180Y-95097744D01*
X108930180Y-95097744D02*
X108977800Y-95002506D01*
X108977800Y-95002506D02*
X109025419Y-94954887D01*
X109025419Y-94954887D02*
X109120657Y-94907268D01*
X109120657Y-94907268D02*
X109930180Y-94907268D01*
X109930180Y-94573934D02*
X109930180Y-94002506D01*
X108930180Y-94288220D02*
X109930180Y-94288220D01*
X109684276Y-68298935D02*
X109684276Y-67917982D01*
X109455704Y-68375125D02*
X110255704Y-68108458D01*
X110255704Y-68108458D02*
X109455704Y-67841792D01*
X110255704Y-67422744D02*
X110255704Y-67346554D01*
X110255704Y-67346554D02*
X110217609Y-67270363D01*
X110217609Y-67270363D02*
X110179514Y-67232268D01*
X110179514Y-67232268D02*
X110103323Y-67194173D01*
X110103323Y-67194173D02*
X109950942Y-67156078D01*
X109950942Y-67156078D02*
X109760466Y-67156078D01*
X109760466Y-67156078D02*
X109608085Y-67194173D01*
X109608085Y-67194173D02*
X109531895Y-67232268D01*
X109531895Y-67232268D02*
X109493800Y-67270363D01*
X109493800Y-67270363D02*
X109455704Y-67346554D01*
X109455704Y-67346554D02*
X109455704Y-67422744D01*
X109455704Y-67422744D02*
X109493800Y-67498935D01*
X109493800Y-67498935D02*
X109531895Y-67537030D01*
X109531895Y-67537030D02*
X109608085Y-67575125D01*
X109608085Y-67575125D02*
X109760466Y-67613221D01*
X109760466Y-67613221D02*
X109950942Y-67613221D01*
X109950942Y-67613221D02*
X110103323Y-67575125D01*
X110103323Y-67575125D02*
X110179514Y-67537030D01*
X110179514Y-67537030D02*
X110217609Y-67498935D01*
X110217609Y-67498935D02*
X110255704Y-67422744D01*
X119452800Y-99185839D02*
X119405180Y-99042982D01*
X119405180Y-99042982D02*
X119405180Y-98804887D01*
X119405180Y-98804887D02*
X119452800Y-98709649D01*
X119452800Y-98709649D02*
X119500419Y-98662030D01*
X119500419Y-98662030D02*
X119595657Y-98614411D01*
X119595657Y-98614411D02*
X119690895Y-98614411D01*
X119690895Y-98614411D02*
X119786133Y-98662030D01*
X119786133Y-98662030D02*
X119833752Y-98709649D01*
X119833752Y-98709649D02*
X119881371Y-98804887D01*
X119881371Y-98804887D02*
X119928990Y-98995363D01*
X119928990Y-98995363D02*
X119976609Y-99090601D01*
X119976609Y-99090601D02*
X120024228Y-99138220D01*
X120024228Y-99138220D02*
X120119466Y-99185839D01*
X120119466Y-99185839D02*
X120214704Y-99185839D01*
X120214704Y-99185839D02*
X120309942Y-99138220D01*
X120309942Y-99138220D02*
X120357561Y-99090601D01*
X120357561Y-99090601D02*
X120405180Y-98995363D01*
X120405180Y-98995363D02*
X120405180Y-98757268D01*
X120405180Y-98757268D02*
X120357561Y-98614411D01*
X119405180Y-98185839D02*
X120405180Y-98185839D01*
X120405180Y-98185839D02*
X120405180Y-97947744D01*
X120405180Y-97947744D02*
X120357561Y-97804887D01*
X120357561Y-97804887D02*
X120262323Y-97709649D01*
X120262323Y-97709649D02*
X120167085Y-97662030D01*
X120167085Y-97662030D02*
X119976609Y-97614411D01*
X119976609Y-97614411D02*
X119833752Y-97614411D01*
X119833752Y-97614411D02*
X119643276Y-97662030D01*
X119643276Y-97662030D02*
X119548038Y-97709649D01*
X119548038Y-97709649D02*
X119452800Y-97804887D01*
X119452800Y-97804887D02*
X119405180Y-97947744D01*
X119405180Y-97947744D02*
X119405180Y-98185839D01*
X120405180Y-96995363D02*
X120405180Y-96804887D01*
X120405180Y-96804887D02*
X120357561Y-96709649D01*
X120357561Y-96709649D02*
X120262323Y-96614411D01*
X120262323Y-96614411D02*
X120071847Y-96566792D01*
X120071847Y-96566792D02*
X119738514Y-96566792D01*
X119738514Y-96566792D02*
X119548038Y-96614411D01*
X119548038Y-96614411D02*
X119452800Y-96709649D01*
X119452800Y-96709649D02*
X119405180Y-96804887D01*
X119405180Y-96804887D02*
X119405180Y-96995363D01*
X119405180Y-96995363D02*
X119452800Y-97090601D01*
X119452800Y-97090601D02*
X119548038Y-97185839D01*
X119548038Y-97185839D02*
X119738514Y-97233458D01*
X119738514Y-97233458D02*
X120071847Y-97233458D01*
X120071847Y-97233458D02*
X120262323Y-97185839D01*
X120262323Y-97185839D02*
X120357561Y-97090601D01*
X120357561Y-97090601D02*
X120405180Y-96995363D01*
X125267609Y-67816792D02*
X125305704Y-67892982D01*
X125305704Y-67892982D02*
X125305704Y-68007268D01*
X125305704Y-68007268D02*
X125267609Y-68121554D01*
X125267609Y-68121554D02*
X125191419Y-68197744D01*
X125191419Y-68197744D02*
X125115228Y-68235839D01*
X125115228Y-68235839D02*
X124962847Y-68273935D01*
X124962847Y-68273935D02*
X124848561Y-68273935D01*
X124848561Y-68273935D02*
X124696180Y-68235839D01*
X124696180Y-68235839D02*
X124619990Y-68197744D01*
X124619990Y-68197744D02*
X124543800Y-68121554D01*
X124543800Y-68121554D02*
X124505704Y-68007268D01*
X124505704Y-68007268D02*
X124505704Y-67931077D01*
X124505704Y-67931077D02*
X124543800Y-67816792D01*
X124543800Y-67816792D02*
X124581895Y-67778696D01*
X124581895Y-67778696D02*
X124848561Y-67778696D01*
X124848561Y-67778696D02*
X124848561Y-67931077D01*
X124505704Y-67435839D02*
X125305704Y-67435839D01*
X125305704Y-67435839D02*
X124505704Y-66978696D01*
X124505704Y-66978696D02*
X125305704Y-66978696D01*
X124505704Y-66597744D02*
X125305704Y-66597744D01*
X125305704Y-66597744D02*
X125305704Y-66407268D01*
X125305704Y-66407268D02*
X125267609Y-66292982D01*
X125267609Y-66292982D02*
X125191419Y-66216792D01*
X125191419Y-66216792D02*
X125115228Y-66178697D01*
X125115228Y-66178697D02*
X124962847Y-66140601D01*
X124962847Y-66140601D02*
X124848561Y-66140601D01*
X124848561Y-66140601D02*
X124696180Y-66178697D01*
X124696180Y-66178697D02*
X124619990Y-66216792D01*
X124619990Y-66216792D02*
X124543800Y-66292982D01*
X124543800Y-66292982D02*
X124505704Y-66407268D01*
X124505704Y-66407268D02*
X124505704Y-66597744D01*
X117905180Y-93033458D02*
X116905180Y-92795363D01*
X116905180Y-92795363D02*
X117619466Y-92604887D01*
X117619466Y-92604887D02*
X116905180Y-92414411D01*
X116905180Y-92414411D02*
X117905180Y-92176316D01*
X117428990Y-91795363D02*
X117428990Y-91462030D01*
X116905180Y-91319173D02*
X116905180Y-91795363D01*
X116905180Y-91795363D02*
X117905180Y-91795363D01*
X117905180Y-91795363D02*
X117905180Y-91319173D01*
X117952800Y-90176316D02*
X116667085Y-91033458D01*
X117428990Y-89509649D02*
X117428990Y-89842982D01*
X116905180Y-89842982D02*
X117905180Y-89842982D01*
X117905180Y-89842982D02*
X117905180Y-89366792D01*
X116952800Y-89033458D02*
X116905180Y-88890601D01*
X116905180Y-88890601D02*
X116905180Y-88652506D01*
X116905180Y-88652506D02*
X116952800Y-88557268D01*
X116952800Y-88557268D02*
X117000419Y-88509649D01*
X117000419Y-88509649D02*
X117095657Y-88462030D01*
X117095657Y-88462030D02*
X117190895Y-88462030D01*
X117190895Y-88462030D02*
X117286133Y-88509649D01*
X117286133Y-88509649D02*
X117333752Y-88557268D01*
X117333752Y-88557268D02*
X117381371Y-88652506D01*
X117381371Y-88652506D02*
X117428990Y-88842982D01*
X117428990Y-88842982D02*
X117476609Y-88938220D01*
X117476609Y-88938220D02*
X117524228Y-88985839D01*
X117524228Y-88985839D02*
X117619466Y-89033458D01*
X117619466Y-89033458D02*
X117714704Y-89033458D01*
X117714704Y-89033458D02*
X117809942Y-88985839D01*
X117809942Y-88985839D02*
X117857561Y-88938220D01*
X117857561Y-88938220D02*
X117905180Y-88842982D01*
X117905180Y-88842982D02*
X117905180Y-88604887D01*
X117905180Y-88604887D02*
X117857561Y-88462030D01*
X117381371Y-87842982D02*
X116905180Y-87842982D01*
X117905180Y-88176315D02*
X117381371Y-87842982D01*
X117381371Y-87842982D02*
X117905180Y-87509649D01*
X116905180Y-87176315D02*
X117905180Y-87176315D01*
X117905180Y-87176315D02*
X116905180Y-86604887D01*
X116905180Y-86604887D02*
X117905180Y-86604887D01*
X117000419Y-85557268D02*
X116952800Y-85604887D01*
X116952800Y-85604887D02*
X116905180Y-85747744D01*
X116905180Y-85747744D02*
X116905180Y-85842982D01*
X116905180Y-85842982D02*
X116952800Y-85985839D01*
X116952800Y-85985839D02*
X117048038Y-86081077D01*
X117048038Y-86081077D02*
X117143276Y-86128696D01*
X117143276Y-86128696D02*
X117333752Y-86176315D01*
X117333752Y-86176315D02*
X117476609Y-86176315D01*
X117476609Y-86176315D02*
X117667085Y-86128696D01*
X117667085Y-86128696D02*
X117762323Y-86081077D01*
X117762323Y-86081077D02*
X117857561Y-85985839D01*
X117857561Y-85985839D02*
X117905180Y-85842982D01*
X117905180Y-85842982D02*
X117905180Y-85747744D01*
X117905180Y-85747744D02*
X117857561Y-85604887D01*
X117857561Y-85604887D02*
X117809942Y-85557268D01*
X109080180Y-92341792D02*
X109556371Y-92675125D01*
X109080180Y-92913220D02*
X110080180Y-92913220D01*
X110080180Y-92913220D02*
X110080180Y-92532268D01*
X110080180Y-92532268D02*
X110032561Y-92437030D01*
X110032561Y-92437030D02*
X109984942Y-92389411D01*
X109984942Y-92389411D02*
X109889704Y-92341792D01*
X109889704Y-92341792D02*
X109746847Y-92341792D01*
X109746847Y-92341792D02*
X109651609Y-92389411D01*
X109651609Y-92389411D02*
X109603990Y-92437030D01*
X109603990Y-92437030D02*
X109556371Y-92532268D01*
X109556371Y-92532268D02*
X109556371Y-92913220D01*
X109603990Y-91913220D02*
X109603990Y-91579887D01*
X109080180Y-91437030D02*
X109080180Y-91913220D01*
X109080180Y-91913220D02*
X110080180Y-91913220D01*
X110080180Y-91913220D02*
X110080180Y-91437030D01*
X109603990Y-90675125D02*
X109603990Y-91008458D01*
X109080180Y-91008458D02*
X110080180Y-91008458D01*
X110080180Y-91008458D02*
X110080180Y-90532268D01*
X109603990Y-89817982D02*
X109556371Y-89675125D01*
X109556371Y-89675125D02*
X109508752Y-89627506D01*
X109508752Y-89627506D02*
X109413514Y-89579887D01*
X109413514Y-89579887D02*
X109270657Y-89579887D01*
X109270657Y-89579887D02*
X109175419Y-89627506D01*
X109175419Y-89627506D02*
X109127800Y-89675125D01*
X109127800Y-89675125D02*
X109080180Y-89770363D01*
X109080180Y-89770363D02*
X109080180Y-90151315D01*
X109080180Y-90151315D02*
X110080180Y-90151315D01*
X110080180Y-90151315D02*
X110080180Y-89817982D01*
X110080180Y-89817982D02*
X110032561Y-89722744D01*
X110032561Y-89722744D02*
X109984942Y-89675125D01*
X109984942Y-89675125D02*
X109889704Y-89627506D01*
X109889704Y-89627506D02*
X109794466Y-89627506D01*
X109794466Y-89627506D02*
X109699228Y-89675125D01*
X109699228Y-89675125D02*
X109651609Y-89722744D01*
X109651609Y-89722744D02*
X109603990Y-89817982D01*
X109603990Y-89817982D02*
X109603990Y-90151315D01*
X109556371Y-88960839D02*
X109080180Y-88960839D01*
X110080180Y-89294172D02*
X109556371Y-88960839D01*
X109556371Y-88960839D02*
X110080180Y-88627506D01*
X109080180Y-88294172D02*
X110080180Y-88294172D01*
X110080180Y-88294172D02*
X110080180Y-87913220D01*
X110080180Y-87913220D02*
X110032561Y-87817982D01*
X110032561Y-87817982D02*
X109984942Y-87770363D01*
X109984942Y-87770363D02*
X109889704Y-87722744D01*
X109889704Y-87722744D02*
X109746847Y-87722744D01*
X109746847Y-87722744D02*
X109651609Y-87770363D01*
X109651609Y-87770363D02*
X109603990Y-87817982D01*
X109603990Y-87817982D02*
X109556371Y-87913220D01*
X109556371Y-87913220D02*
X109556371Y-88294172D01*
X124635839Y-73839104D02*
X124159649Y-73839104D01*
X124731077Y-74124819D02*
X124397744Y-73124819D01*
X124397744Y-73124819D02*
X124064411Y-74124819D01*
X123731077Y-74124819D02*
X123731077Y-73124819D01*
X123731077Y-73124819D02*
X123492982Y-73124819D01*
X123492982Y-73124819D02*
X123350125Y-73172438D01*
X123350125Y-73172438D02*
X123254887Y-73267676D01*
X123254887Y-73267676D02*
X123207268Y-73362914D01*
X123207268Y-73362914D02*
X123159649Y-73553390D01*
X123159649Y-73553390D02*
X123159649Y-73696247D01*
X123159649Y-73696247D02*
X123207268Y-73886723D01*
X123207268Y-73886723D02*
X123254887Y-73981961D01*
X123254887Y-73981961D02*
X123350125Y-74077200D01*
X123350125Y-74077200D02*
X123492982Y-74124819D01*
X123492982Y-74124819D02*
X123731077Y-74124819D01*
X122778696Y-73220057D02*
X122731077Y-73172438D01*
X122731077Y-73172438D02*
X122635839Y-73124819D01*
X122635839Y-73124819D02*
X122397744Y-73124819D01*
X122397744Y-73124819D02*
X122302506Y-73172438D01*
X122302506Y-73172438D02*
X122254887Y-73220057D01*
X122254887Y-73220057D02*
X122207268Y-73315295D01*
X122207268Y-73315295D02*
X122207268Y-73410533D01*
X122207268Y-73410533D02*
X122254887Y-73553390D01*
X122254887Y-73553390D02*
X122826315Y-74124819D01*
X122826315Y-74124819D02*
X122207268Y-74124819D01*
X121826315Y-74077200D02*
X121683458Y-74124819D01*
X121683458Y-74124819D02*
X121445363Y-74124819D01*
X121445363Y-74124819D02*
X121350125Y-74077200D01*
X121350125Y-74077200D02*
X121302506Y-74029580D01*
X121302506Y-74029580D02*
X121254887Y-73934342D01*
X121254887Y-73934342D02*
X121254887Y-73839104D01*
X121254887Y-73839104D02*
X121302506Y-73743866D01*
X121302506Y-73743866D02*
X121350125Y-73696247D01*
X121350125Y-73696247D02*
X121445363Y-73648628D01*
X121445363Y-73648628D02*
X121635839Y-73601009D01*
X121635839Y-73601009D02*
X121731077Y-73553390D01*
X121731077Y-73553390D02*
X121778696Y-73505771D01*
X121778696Y-73505771D02*
X121826315Y-73410533D01*
X121826315Y-73410533D02*
X121826315Y-73315295D01*
X121826315Y-73315295D02*
X121778696Y-73220057D01*
X121778696Y-73220057D02*
X121731077Y-73172438D01*
X121731077Y-73172438D02*
X121635839Y-73124819D01*
X121635839Y-73124819D02*
X121397744Y-73124819D01*
X121397744Y-73124819D02*
X121254887Y-73172438D01*
X120302506Y-74124819D02*
X120873934Y-74124819D01*
X120588220Y-74124819D02*
X120588220Y-73124819D01*
X120588220Y-73124819D02*
X120683458Y-73267676D01*
X120683458Y-73267676D02*
X120778696Y-73362914D01*
X120778696Y-73362914D02*
X120873934Y-73410533D01*
X119921553Y-73220057D02*
X119873934Y-73172438D01*
X119873934Y-73172438D02*
X119778696Y-73124819D01*
X119778696Y-73124819D02*
X119540601Y-73124819D01*
X119540601Y-73124819D02*
X119445363Y-73172438D01*
X119445363Y-73172438D02*
X119397744Y-73220057D01*
X119397744Y-73220057D02*
X119350125Y-73315295D01*
X119350125Y-73315295D02*
X119350125Y-73410533D01*
X119350125Y-73410533D02*
X119397744Y-73553390D01*
X119397744Y-73553390D02*
X119969172Y-74124819D01*
X119969172Y-74124819D02*
X119350125Y-74124819D01*
X118731077Y-73124819D02*
X118635839Y-73124819D01*
X118635839Y-73124819D02*
X118540601Y-73172438D01*
X118540601Y-73172438D02*
X118492982Y-73220057D01*
X118492982Y-73220057D02*
X118445363Y-73315295D01*
X118445363Y-73315295D02*
X118397744Y-73505771D01*
X118397744Y-73505771D02*
X118397744Y-73743866D01*
X118397744Y-73743866D02*
X118445363Y-73934342D01*
X118445363Y-73934342D02*
X118492982Y-74029580D01*
X118492982Y-74029580D02*
X118540601Y-74077200D01*
X118540601Y-74077200D02*
X118635839Y-74124819D01*
X118635839Y-74124819D02*
X118731077Y-74124819D01*
X118731077Y-74124819D02*
X118826315Y-74077200D01*
X118826315Y-74077200D02*
X118873934Y-74029580D01*
X118873934Y-74029580D02*
X118921553Y-73934342D01*
X118921553Y-73934342D02*
X118969172Y-73743866D01*
X118969172Y-73743866D02*
X118969172Y-73505771D01*
X118969172Y-73505771D02*
X118921553Y-73315295D01*
X118921553Y-73315295D02*
X118873934Y-73220057D01*
X118873934Y-73220057D02*
X118826315Y-73172438D01*
X118826315Y-73172438D02*
X118731077Y-73124819D01*
X117207267Y-74124819D02*
X117207267Y-73458152D01*
X117207267Y-73648628D02*
X117159648Y-73553390D01*
X117159648Y-73553390D02*
X117112029Y-73505771D01*
X117112029Y-73505771D02*
X117016791Y-73458152D01*
X117016791Y-73458152D02*
X116921553Y-73458152D01*
X116207267Y-74077200D02*
X116302505Y-74124819D01*
X116302505Y-74124819D02*
X116492981Y-74124819D01*
X116492981Y-74124819D02*
X116588219Y-74077200D01*
X116588219Y-74077200D02*
X116635838Y-73981961D01*
X116635838Y-73981961D02*
X116635838Y-73601009D01*
X116635838Y-73601009D02*
X116588219Y-73505771D01*
X116588219Y-73505771D02*
X116492981Y-73458152D01*
X116492981Y-73458152D02*
X116302505Y-73458152D01*
X116302505Y-73458152D02*
X116207267Y-73505771D01*
X116207267Y-73505771D02*
X116159648Y-73601009D01*
X116159648Y-73601009D02*
X116159648Y-73696247D01*
X116159648Y-73696247D02*
X116635838Y-73791485D01*
X115778695Y-74077200D02*
X115683457Y-74124819D01*
X115683457Y-74124819D02*
X115492981Y-74124819D01*
X115492981Y-74124819D02*
X115397743Y-74077200D01*
X115397743Y-74077200D02*
X115350124Y-73981961D01*
X115350124Y-73981961D02*
X115350124Y-73934342D01*
X115350124Y-73934342D02*
X115397743Y-73839104D01*
X115397743Y-73839104D02*
X115492981Y-73791485D01*
X115492981Y-73791485D02*
X115635838Y-73791485D01*
X115635838Y-73791485D02*
X115731076Y-73743866D01*
X115731076Y-73743866D02*
X115778695Y-73648628D01*
X115778695Y-73648628D02*
X115778695Y-73601009D01*
X115778695Y-73601009D02*
X115731076Y-73505771D01*
X115731076Y-73505771D02*
X115635838Y-73458152D01*
X115635838Y-73458152D02*
X115492981Y-73458152D01*
X115492981Y-73458152D02*
X115397743Y-73505771D01*
X114778695Y-74124819D02*
X114873933Y-74077200D01*
X114873933Y-74077200D02*
X114921552Y-74029580D01*
X114921552Y-74029580D02*
X114969171Y-73934342D01*
X114969171Y-73934342D02*
X114969171Y-73648628D01*
X114969171Y-73648628D02*
X114921552Y-73553390D01*
X114921552Y-73553390D02*
X114873933Y-73505771D01*
X114873933Y-73505771D02*
X114778695Y-73458152D01*
X114778695Y-73458152D02*
X114635838Y-73458152D01*
X114635838Y-73458152D02*
X114540600Y-73505771D01*
X114540600Y-73505771D02*
X114492981Y-73553390D01*
X114492981Y-73553390D02*
X114445362Y-73648628D01*
X114445362Y-73648628D02*
X114445362Y-73934342D01*
X114445362Y-73934342D02*
X114492981Y-74029580D01*
X114492981Y-74029580D02*
X114540600Y-74077200D01*
X114540600Y-74077200D02*
X114635838Y-74124819D01*
X114635838Y-74124819D02*
X114778695Y-74124819D01*
X113873933Y-74124819D02*
X113969171Y-74077200D01*
X113969171Y-74077200D02*
X114016790Y-73981961D01*
X114016790Y-73981961D02*
X114016790Y-73124819D01*
X113588218Y-73458152D02*
X113350123Y-74124819D01*
X113350123Y-74124819D02*
X113112028Y-73458152D01*
X112350123Y-74077200D02*
X112445361Y-74124819D01*
X112445361Y-74124819D02*
X112635837Y-74124819D01*
X112635837Y-74124819D02*
X112731075Y-74077200D01*
X112731075Y-74077200D02*
X112778694Y-73981961D01*
X112778694Y-73981961D02*
X112778694Y-73601009D01*
X112778694Y-73601009D02*
X112731075Y-73505771D01*
X112731075Y-73505771D02*
X112635837Y-73458152D01*
X112635837Y-73458152D02*
X112445361Y-73458152D01*
X112445361Y-73458152D02*
X112350123Y-73505771D01*
X112350123Y-73505771D02*
X112302504Y-73601009D01*
X112302504Y-73601009D02*
X112302504Y-73696247D01*
X112302504Y-73696247D02*
X112778694Y-73791485D01*
X111873932Y-74124819D02*
X111873932Y-73458152D01*
X111873932Y-73648628D02*
X111826313Y-73553390D01*
X111826313Y-73553390D02*
X111778694Y-73505771D01*
X111778694Y-73505771D02*
X111683456Y-73458152D01*
X111683456Y-73458152D02*
X111588218Y-73458152D01*
X111254884Y-73743866D02*
X110492980Y-73743866D01*
X109635837Y-74077200D02*
X109731075Y-74124819D01*
X109731075Y-74124819D02*
X109921551Y-74124819D01*
X109921551Y-74124819D02*
X110016789Y-74077200D01*
X110016789Y-74077200D02*
X110064408Y-73981961D01*
X110064408Y-73981961D02*
X110064408Y-73601009D01*
X110064408Y-73601009D02*
X110016789Y-73505771D01*
X110016789Y-73505771D02*
X109921551Y-73458152D01*
X109921551Y-73458152D02*
X109731075Y-73458152D01*
X109731075Y-73458152D02*
X109635837Y-73505771D01*
X109635837Y-73505771D02*
X109588218Y-73601009D01*
X109588218Y-73601009D02*
X109588218Y-73696247D01*
X109588218Y-73696247D02*
X110064408Y-73791485D01*
X109159646Y-73458152D02*
X109159646Y-74124819D01*
X109159646Y-73553390D02*
X109112027Y-73505771D01*
X109112027Y-73505771D02*
X109016789Y-73458152D01*
X109016789Y-73458152D02*
X108873932Y-73458152D01*
X108873932Y-73458152D02*
X108778694Y-73505771D01*
X108778694Y-73505771D02*
X108731075Y-73601009D01*
X108731075Y-73601009D02*
X108731075Y-74124819D01*
X107826313Y-74077200D02*
X107921551Y-74124819D01*
X107921551Y-74124819D02*
X108112027Y-74124819D01*
X108112027Y-74124819D02*
X108207265Y-74077200D01*
X108207265Y-74077200D02*
X108254884Y-74029580D01*
X108254884Y-74029580D02*
X108302503Y-73934342D01*
X108302503Y-73934342D02*
X108302503Y-73648628D01*
X108302503Y-73648628D02*
X108254884Y-73553390D01*
X108254884Y-73553390D02*
X108207265Y-73505771D01*
X108207265Y-73505771D02*
X108112027Y-73458152D01*
X108112027Y-73458152D02*
X107921551Y-73458152D01*
X107921551Y-73458152D02*
X107826313Y-73505771D01*
X107254884Y-74124819D02*
X107350122Y-74077200D01*
X107350122Y-74077200D02*
X107397741Y-74029580D01*
X107397741Y-74029580D02*
X107445360Y-73934342D01*
X107445360Y-73934342D02*
X107445360Y-73648628D01*
X107445360Y-73648628D02*
X107397741Y-73553390D01*
X107397741Y-73553390D02*
X107350122Y-73505771D01*
X107350122Y-73505771D02*
X107254884Y-73458152D01*
X107254884Y-73458152D02*
X107112027Y-73458152D01*
X107112027Y-73458152D02*
X107016789Y-73505771D01*
X107016789Y-73505771D02*
X106969170Y-73553390D01*
X106969170Y-73553390D02*
X106921551Y-73648628D01*
X106921551Y-73648628D02*
X106921551Y-73934342D01*
X106921551Y-73934342D02*
X106969170Y-74029580D01*
X106969170Y-74029580D02*
X107016789Y-74077200D01*
X107016789Y-74077200D02*
X107112027Y-74124819D01*
X107112027Y-74124819D02*
X107254884Y-74124819D01*
X106064408Y-74124819D02*
X106064408Y-73124819D01*
X106064408Y-74077200D02*
X106159646Y-74124819D01*
X106159646Y-74124819D02*
X106350122Y-74124819D01*
X106350122Y-74124819D02*
X106445360Y-74077200D01*
X106445360Y-74077200D02*
X106492979Y-74029580D01*
X106492979Y-74029580D02*
X106540598Y-73934342D01*
X106540598Y-73934342D02*
X106540598Y-73648628D01*
X106540598Y-73648628D02*
X106492979Y-73553390D01*
X106492979Y-73553390D02*
X106445360Y-73505771D01*
X106445360Y-73505771D02*
X106350122Y-73458152D01*
X106350122Y-73458152D02*
X106159646Y-73458152D01*
X106159646Y-73458152D02*
X106064408Y-73505771D01*
X105207265Y-74077200D02*
X105302503Y-74124819D01*
X105302503Y-74124819D02*
X105492979Y-74124819D01*
X105492979Y-74124819D02*
X105588217Y-74077200D01*
X105588217Y-74077200D02*
X105635836Y-73981961D01*
X105635836Y-73981961D02*
X105635836Y-73601009D01*
X105635836Y-73601009D02*
X105588217Y-73505771D01*
X105588217Y-73505771D02*
X105492979Y-73458152D01*
X105492979Y-73458152D02*
X105302503Y-73458152D01*
X105302503Y-73458152D02*
X105207265Y-73505771D01*
X105207265Y-73505771D02*
X105159646Y-73601009D01*
X105159646Y-73601009D02*
X105159646Y-73696247D01*
X105159646Y-73696247D02*
X105635836Y-73791485D01*
X104731074Y-74124819D02*
X104731074Y-73458152D01*
X104731074Y-73648628D02*
X104683455Y-73553390D01*
X104683455Y-73553390D02*
X104635836Y-73505771D01*
X104635836Y-73505771D02*
X104540598Y-73458152D01*
X104540598Y-73458152D02*
X104445360Y-73458152D01*
X124159649Y-75687200D02*
X124254887Y-75734819D01*
X124254887Y-75734819D02*
X124445363Y-75734819D01*
X124445363Y-75734819D02*
X124540601Y-75687200D01*
X124540601Y-75687200D02*
X124588220Y-75639580D01*
X124588220Y-75639580D02*
X124635839Y-75544342D01*
X124635839Y-75544342D02*
X124635839Y-75258628D01*
X124635839Y-75258628D02*
X124588220Y-75163390D01*
X124588220Y-75163390D02*
X124540601Y-75115771D01*
X124540601Y-75115771D02*
X124445363Y-75068152D01*
X124445363Y-75068152D02*
X124254887Y-75068152D01*
X124254887Y-75068152D02*
X124159649Y-75115771D01*
X123588220Y-75734819D02*
X123683458Y-75687200D01*
X123683458Y-75687200D02*
X123731077Y-75639580D01*
X123731077Y-75639580D02*
X123778696Y-75544342D01*
X123778696Y-75544342D02*
X123778696Y-75258628D01*
X123778696Y-75258628D02*
X123731077Y-75163390D01*
X123731077Y-75163390D02*
X123683458Y-75115771D01*
X123683458Y-75115771D02*
X123588220Y-75068152D01*
X123588220Y-75068152D02*
X123445363Y-75068152D01*
X123445363Y-75068152D02*
X123350125Y-75115771D01*
X123350125Y-75115771D02*
X123302506Y-75163390D01*
X123302506Y-75163390D02*
X123254887Y-75258628D01*
X123254887Y-75258628D02*
X123254887Y-75544342D01*
X123254887Y-75544342D02*
X123302506Y-75639580D01*
X123302506Y-75639580D02*
X123350125Y-75687200D01*
X123350125Y-75687200D02*
X123445363Y-75734819D01*
X123445363Y-75734819D02*
X123588220Y-75734819D01*
X122826315Y-75068152D02*
X122826315Y-75734819D01*
X122826315Y-75163390D02*
X122778696Y-75115771D01*
X122778696Y-75115771D02*
X122683458Y-75068152D01*
X122683458Y-75068152D02*
X122540601Y-75068152D01*
X122540601Y-75068152D02*
X122445363Y-75115771D01*
X122445363Y-75115771D02*
X122397744Y-75211009D01*
X122397744Y-75211009D02*
X122397744Y-75734819D01*
X122016791Y-75068152D02*
X121778696Y-75734819D01*
X121778696Y-75734819D02*
X121540601Y-75068152D01*
X120778696Y-75687200D02*
X120873934Y-75734819D01*
X120873934Y-75734819D02*
X121064410Y-75734819D01*
X121064410Y-75734819D02*
X121159648Y-75687200D01*
X121159648Y-75687200D02*
X121207267Y-75591961D01*
X121207267Y-75591961D02*
X121207267Y-75211009D01*
X121207267Y-75211009D02*
X121159648Y-75115771D01*
X121159648Y-75115771D02*
X121064410Y-75068152D01*
X121064410Y-75068152D02*
X120873934Y-75068152D01*
X120873934Y-75068152D02*
X120778696Y-75115771D01*
X120778696Y-75115771D02*
X120731077Y-75211009D01*
X120731077Y-75211009D02*
X120731077Y-75306247D01*
X120731077Y-75306247D02*
X121207267Y-75401485D01*
X120302505Y-75734819D02*
X120302505Y-75068152D01*
X120302505Y-75258628D02*
X120254886Y-75163390D01*
X120254886Y-75163390D02*
X120207267Y-75115771D01*
X120207267Y-75115771D02*
X120112029Y-75068152D01*
X120112029Y-75068152D02*
X120016791Y-75068152D01*
X119826314Y-75068152D02*
X119445362Y-75068152D01*
X119683457Y-74734819D02*
X119683457Y-75591961D01*
X119683457Y-75591961D02*
X119635838Y-75687200D01*
X119635838Y-75687200D02*
X119540600Y-75734819D01*
X119540600Y-75734819D02*
X119445362Y-75734819D01*
X118731076Y-75687200D02*
X118826314Y-75734819D01*
X118826314Y-75734819D02*
X119016790Y-75734819D01*
X119016790Y-75734819D02*
X119112028Y-75687200D01*
X119112028Y-75687200D02*
X119159647Y-75591961D01*
X119159647Y-75591961D02*
X119159647Y-75211009D01*
X119159647Y-75211009D02*
X119112028Y-75115771D01*
X119112028Y-75115771D02*
X119016790Y-75068152D01*
X119016790Y-75068152D02*
X118826314Y-75068152D01*
X118826314Y-75068152D02*
X118731076Y-75115771D01*
X118731076Y-75115771D02*
X118683457Y-75211009D01*
X118683457Y-75211009D02*
X118683457Y-75306247D01*
X118683457Y-75306247D02*
X119159647Y-75401485D01*
X118254885Y-75734819D02*
X118254885Y-75068152D01*
X118254885Y-75258628D02*
X118207266Y-75163390D01*
X118207266Y-75163390D02*
X118159647Y-75115771D01*
X118159647Y-75115771D02*
X118064409Y-75068152D01*
X118064409Y-75068152D02*
X117969171Y-75068152D01*
X116969170Y-75068152D02*
X116731075Y-75734819D01*
X116731075Y-75734819D02*
X116492980Y-75068152D01*
X114826313Y-75734819D02*
X115397741Y-75734819D01*
X115112027Y-75734819D02*
X115112027Y-74734819D01*
X115112027Y-74734819D02*
X115207265Y-74877676D01*
X115207265Y-74877676D02*
X115302503Y-74972914D01*
X115302503Y-74972914D02*
X115397741Y-75020533D01*
X114397741Y-75639580D02*
X114350122Y-75687200D01*
X114350122Y-75687200D02*
X114397741Y-75734819D01*
X114397741Y-75734819D02*
X114445360Y-75687200D01*
X114445360Y-75687200D02*
X114397741Y-75639580D01*
X114397741Y-75639580D02*
X114397741Y-75734819D01*
X113731075Y-74734819D02*
X113635837Y-74734819D01*
X113635837Y-74734819D02*
X113540599Y-74782438D01*
X113540599Y-74782438D02*
X113492980Y-74830057D01*
X113492980Y-74830057D02*
X113445361Y-74925295D01*
X113445361Y-74925295D02*
X113397742Y-75115771D01*
X113397742Y-75115771D02*
X113397742Y-75353866D01*
X113397742Y-75353866D02*
X113445361Y-75544342D01*
X113445361Y-75544342D02*
X113492980Y-75639580D01*
X113492980Y-75639580D02*
X113540599Y-75687200D01*
X113540599Y-75687200D02*
X113635837Y-75734819D01*
X113635837Y-75734819D02*
X113731075Y-75734819D01*
X113731075Y-75734819D02*
X113826313Y-75687200D01*
X113826313Y-75687200D02*
X113873932Y-75639580D01*
X113873932Y-75639580D02*
X113921551Y-75544342D01*
X113921551Y-75544342D02*
X113969170Y-75353866D01*
X113969170Y-75353866D02*
X113969170Y-75115771D01*
X113969170Y-75115771D02*
X113921551Y-74925295D01*
X113921551Y-74925295D02*
X113873932Y-74830057D01*
X113873932Y-74830057D02*
X113826313Y-74782438D01*
X113826313Y-74782438D02*
X113731075Y-74734819D01*
X124588220Y-77344819D02*
X124588220Y-76344819D01*
X124588220Y-76344819D02*
X124207268Y-76344819D01*
X124207268Y-76344819D02*
X124112030Y-76392438D01*
X124112030Y-76392438D02*
X124064411Y-76440057D01*
X124064411Y-76440057D02*
X124016792Y-76535295D01*
X124016792Y-76535295D02*
X124016792Y-76678152D01*
X124016792Y-76678152D02*
X124064411Y-76773390D01*
X124064411Y-76773390D02*
X124112030Y-76821009D01*
X124112030Y-76821009D02*
X124207268Y-76868628D01*
X124207268Y-76868628D02*
X124588220Y-76868628D01*
X123588220Y-77344819D02*
X123588220Y-76344819D01*
X123588220Y-76344819D02*
X123207268Y-76344819D01*
X123207268Y-76344819D02*
X123112030Y-76392438D01*
X123112030Y-76392438D02*
X123064411Y-76440057D01*
X123064411Y-76440057D02*
X123016792Y-76535295D01*
X123016792Y-76535295D02*
X123016792Y-76678152D01*
X123016792Y-76678152D02*
X123064411Y-76773390D01*
X123064411Y-76773390D02*
X123112030Y-76821009D01*
X123112030Y-76821009D02*
X123207268Y-76868628D01*
X123207268Y-76868628D02*
X123588220Y-76868628D01*
X121873934Y-76440057D02*
X121826315Y-76392438D01*
X121826315Y-76392438D02*
X121731077Y-76344819D01*
X121731077Y-76344819D02*
X121492982Y-76344819D01*
X121492982Y-76344819D02*
X121397744Y-76392438D01*
X121397744Y-76392438D02*
X121350125Y-76440057D01*
X121350125Y-76440057D02*
X121302506Y-76535295D01*
X121302506Y-76535295D02*
X121302506Y-76630533D01*
X121302506Y-76630533D02*
X121350125Y-76773390D01*
X121350125Y-76773390D02*
X121921553Y-77344819D01*
X121921553Y-77344819D02*
X121302506Y-77344819D01*
X120683458Y-76344819D02*
X120588220Y-76344819D01*
X120588220Y-76344819D02*
X120492982Y-76392438D01*
X120492982Y-76392438D02*
X120445363Y-76440057D01*
X120445363Y-76440057D02*
X120397744Y-76535295D01*
X120397744Y-76535295D02*
X120350125Y-76725771D01*
X120350125Y-76725771D02*
X120350125Y-76963866D01*
X120350125Y-76963866D02*
X120397744Y-77154342D01*
X120397744Y-77154342D02*
X120445363Y-77249580D01*
X120445363Y-77249580D02*
X120492982Y-77297200D01*
X120492982Y-77297200D02*
X120588220Y-77344819D01*
X120588220Y-77344819D02*
X120683458Y-77344819D01*
X120683458Y-77344819D02*
X120778696Y-77297200D01*
X120778696Y-77297200D02*
X120826315Y-77249580D01*
X120826315Y-77249580D02*
X120873934Y-77154342D01*
X120873934Y-77154342D02*
X120921553Y-76963866D01*
X120921553Y-76963866D02*
X120921553Y-76725771D01*
X120921553Y-76725771D02*
X120873934Y-76535295D01*
X120873934Y-76535295D02*
X120826315Y-76440057D01*
X120826315Y-76440057D02*
X120778696Y-76392438D01*
X120778696Y-76392438D02*
X120683458Y-76344819D01*
X119969172Y-76440057D02*
X119921553Y-76392438D01*
X119921553Y-76392438D02*
X119826315Y-76344819D01*
X119826315Y-76344819D02*
X119588220Y-76344819D01*
X119588220Y-76344819D02*
X119492982Y-76392438D01*
X119492982Y-76392438D02*
X119445363Y-76440057D01*
X119445363Y-76440057D02*
X119397744Y-76535295D01*
X119397744Y-76535295D02*
X119397744Y-76630533D01*
X119397744Y-76630533D02*
X119445363Y-76773390D01*
X119445363Y-76773390D02*
X120016791Y-77344819D01*
X120016791Y-77344819D02*
X119397744Y-77344819D01*
X118540601Y-76678152D02*
X118540601Y-77344819D01*
X118778696Y-76297200D02*
X119016791Y-77011485D01*
X119016791Y-77011485D02*
X118397744Y-77011485D01*
X112084276Y-68198935D02*
X112084276Y-67817982D01*
X111855704Y-68275125D02*
X112655704Y-68008458D01*
X112655704Y-68008458D02*
X111855704Y-67741792D01*
X111855704Y-67056078D02*
X111855704Y-67513221D01*
X111855704Y-67284649D02*
X112655704Y-67284649D01*
X112655704Y-67284649D02*
X112541419Y-67360840D01*
X112541419Y-67360840D02*
X112465228Y-67437030D01*
X112465228Y-67437030D02*
X112427133Y-67513221D01*
X122102800Y-92985839D02*
X122055180Y-92842982D01*
X122055180Y-92842982D02*
X122055180Y-92604887D01*
X122055180Y-92604887D02*
X122102800Y-92509649D01*
X122102800Y-92509649D02*
X122150419Y-92462030D01*
X122150419Y-92462030D02*
X122245657Y-92414411D01*
X122245657Y-92414411D02*
X122340895Y-92414411D01*
X122340895Y-92414411D02*
X122436133Y-92462030D01*
X122436133Y-92462030D02*
X122483752Y-92509649D01*
X122483752Y-92509649D02*
X122531371Y-92604887D01*
X122531371Y-92604887D02*
X122578990Y-92795363D01*
X122578990Y-92795363D02*
X122626609Y-92890601D01*
X122626609Y-92890601D02*
X122674228Y-92938220D01*
X122674228Y-92938220D02*
X122769466Y-92985839D01*
X122769466Y-92985839D02*
X122864704Y-92985839D01*
X122864704Y-92985839D02*
X122959942Y-92938220D01*
X122959942Y-92938220D02*
X123007561Y-92890601D01*
X123007561Y-92890601D02*
X123055180Y-92795363D01*
X123055180Y-92795363D02*
X123055180Y-92557268D01*
X123055180Y-92557268D02*
X123007561Y-92414411D01*
X122055180Y-91985839D02*
X123055180Y-91985839D01*
X123055180Y-91985839D02*
X123055180Y-91747744D01*
X123055180Y-91747744D02*
X123007561Y-91604887D01*
X123007561Y-91604887D02*
X122912323Y-91509649D01*
X122912323Y-91509649D02*
X122817085Y-91462030D01*
X122817085Y-91462030D02*
X122626609Y-91414411D01*
X122626609Y-91414411D02*
X122483752Y-91414411D01*
X122483752Y-91414411D02*
X122293276Y-91462030D01*
X122293276Y-91462030D02*
X122198038Y-91509649D01*
X122198038Y-91509649D02*
X122102800Y-91604887D01*
X122102800Y-91604887D02*
X122055180Y-91747744D01*
X122055180Y-91747744D02*
X122055180Y-91985839D01*
X122055180Y-90985839D02*
X123055180Y-90985839D01*
X111650419Y-98741792D02*
X111602800Y-98789411D01*
X111602800Y-98789411D02*
X111555180Y-98932268D01*
X111555180Y-98932268D02*
X111555180Y-99027506D01*
X111555180Y-99027506D02*
X111602800Y-99170363D01*
X111602800Y-99170363D02*
X111698038Y-99265601D01*
X111698038Y-99265601D02*
X111793276Y-99313220D01*
X111793276Y-99313220D02*
X111983752Y-99360839D01*
X111983752Y-99360839D02*
X112126609Y-99360839D01*
X112126609Y-99360839D02*
X112317085Y-99313220D01*
X112317085Y-99313220D02*
X112412323Y-99265601D01*
X112412323Y-99265601D02*
X112507561Y-99170363D01*
X112507561Y-99170363D02*
X112555180Y-99027506D01*
X112555180Y-99027506D02*
X112555180Y-98932268D01*
X112555180Y-98932268D02*
X112507561Y-98789411D01*
X112507561Y-98789411D02*
X112459942Y-98741792D01*
X111602800Y-98360839D02*
X111555180Y-98217982D01*
X111555180Y-98217982D02*
X111555180Y-97979887D01*
X111555180Y-97979887D02*
X111602800Y-97884649D01*
X111602800Y-97884649D02*
X111650419Y-97837030D01*
X111650419Y-97837030D02*
X111745657Y-97789411D01*
X111745657Y-97789411D02*
X111840895Y-97789411D01*
X111840895Y-97789411D02*
X111936133Y-97837030D01*
X111936133Y-97837030D02*
X111983752Y-97884649D01*
X111983752Y-97884649D02*
X112031371Y-97979887D01*
X112031371Y-97979887D02*
X112078990Y-98170363D01*
X112078990Y-98170363D02*
X112126609Y-98265601D01*
X112126609Y-98265601D02*
X112174228Y-98313220D01*
X112174228Y-98313220D02*
X112269466Y-98360839D01*
X112269466Y-98360839D02*
X112364704Y-98360839D01*
X112364704Y-98360839D02*
X112459942Y-98313220D01*
X112459942Y-98313220D02*
X112507561Y-98265601D01*
X112507561Y-98265601D02*
X112555180Y-98170363D01*
X112555180Y-98170363D02*
X112555180Y-97932268D01*
X112555180Y-97932268D02*
X112507561Y-97789411D01*
X111705180Y-92291792D02*
X112181371Y-92625125D01*
X111705180Y-92863220D02*
X112705180Y-92863220D01*
X112705180Y-92863220D02*
X112705180Y-92482268D01*
X112705180Y-92482268D02*
X112657561Y-92387030D01*
X112657561Y-92387030D02*
X112609942Y-92339411D01*
X112609942Y-92339411D02*
X112514704Y-92291792D01*
X112514704Y-92291792D02*
X112371847Y-92291792D01*
X112371847Y-92291792D02*
X112276609Y-92339411D01*
X112276609Y-92339411D02*
X112228990Y-92387030D01*
X112228990Y-92387030D02*
X112181371Y-92482268D01*
X112181371Y-92482268D02*
X112181371Y-92863220D01*
X112228990Y-91863220D02*
X112228990Y-91529887D01*
X111705180Y-91387030D02*
X111705180Y-91863220D01*
X111705180Y-91863220D02*
X112705180Y-91863220D01*
X112705180Y-91863220D02*
X112705180Y-91387030D01*
X111752800Y-91006077D02*
X111705180Y-90863220D01*
X111705180Y-90863220D02*
X111705180Y-90625125D01*
X111705180Y-90625125D02*
X111752800Y-90529887D01*
X111752800Y-90529887D02*
X111800419Y-90482268D01*
X111800419Y-90482268D02*
X111895657Y-90434649D01*
X111895657Y-90434649D02*
X111990895Y-90434649D01*
X111990895Y-90434649D02*
X112086133Y-90482268D01*
X112086133Y-90482268D02*
X112133752Y-90529887D01*
X112133752Y-90529887D02*
X112181371Y-90625125D01*
X112181371Y-90625125D02*
X112228990Y-90815601D01*
X112228990Y-90815601D02*
X112276609Y-90910839D01*
X112276609Y-90910839D02*
X112324228Y-90958458D01*
X112324228Y-90958458D02*
X112419466Y-91006077D01*
X112419466Y-91006077D02*
X112514704Y-91006077D01*
X112514704Y-91006077D02*
X112609942Y-90958458D01*
X112609942Y-90958458D02*
X112657561Y-90910839D01*
X112657561Y-90910839D02*
X112705180Y-90815601D01*
X112705180Y-90815601D02*
X112705180Y-90577506D01*
X112705180Y-90577506D02*
X112657561Y-90434649D01*
X112705180Y-89815601D02*
X112705180Y-89720363D01*
X112705180Y-89720363D02*
X112657561Y-89625125D01*
X112657561Y-89625125D02*
X112609942Y-89577506D01*
X112609942Y-89577506D02*
X112514704Y-89529887D01*
X112514704Y-89529887D02*
X112324228Y-89482268D01*
X112324228Y-89482268D02*
X112086133Y-89482268D01*
X112086133Y-89482268D02*
X111895657Y-89529887D01*
X111895657Y-89529887D02*
X111800419Y-89577506D01*
X111800419Y-89577506D02*
X111752800Y-89625125D01*
X111752800Y-89625125D02*
X111705180Y-89720363D01*
X111705180Y-89720363D02*
X111705180Y-89815601D01*
X111705180Y-89815601D02*
X111752800Y-89910839D01*
X111752800Y-89910839D02*
X111800419Y-89958458D01*
X111800419Y-89958458D02*
X111895657Y-90006077D01*
X111895657Y-90006077D02*
X112086133Y-90053696D01*
X112086133Y-90053696D02*
X112324228Y-90053696D01*
X112324228Y-90053696D02*
X112514704Y-90006077D01*
X112514704Y-90006077D02*
X112609942Y-89958458D01*
X112609942Y-89958458D02*
X112657561Y-89910839D01*
X112657561Y-89910839D02*
X112705180Y-89815601D01*
X119577800Y-92960839D02*
X119530180Y-92817982D01*
X119530180Y-92817982D02*
X119530180Y-92579887D01*
X119530180Y-92579887D02*
X119577800Y-92484649D01*
X119577800Y-92484649D02*
X119625419Y-92437030D01*
X119625419Y-92437030D02*
X119720657Y-92389411D01*
X119720657Y-92389411D02*
X119815895Y-92389411D01*
X119815895Y-92389411D02*
X119911133Y-92437030D01*
X119911133Y-92437030D02*
X119958752Y-92484649D01*
X119958752Y-92484649D02*
X120006371Y-92579887D01*
X120006371Y-92579887D02*
X120053990Y-92770363D01*
X120053990Y-92770363D02*
X120101609Y-92865601D01*
X120101609Y-92865601D02*
X120149228Y-92913220D01*
X120149228Y-92913220D02*
X120244466Y-92960839D01*
X120244466Y-92960839D02*
X120339704Y-92960839D01*
X120339704Y-92960839D02*
X120434942Y-92913220D01*
X120434942Y-92913220D02*
X120482561Y-92865601D01*
X120482561Y-92865601D02*
X120530180Y-92770363D01*
X120530180Y-92770363D02*
X120530180Y-92532268D01*
X120530180Y-92532268D02*
X120482561Y-92389411D01*
X119815895Y-92008458D02*
X119815895Y-91532268D01*
X119530180Y-92103696D02*
X120530180Y-91770363D01*
X120530180Y-91770363D02*
X119530180Y-91437030D01*
X119530180Y-91103696D02*
X120530180Y-91103696D01*
X120530180Y-91103696D02*
X119815895Y-90770363D01*
X119815895Y-90770363D02*
X120530180Y-90437030D01*
X120530180Y-90437030D02*
X119530180Y-90437030D01*
X119530180Y-89960839D02*
X120530180Y-89960839D01*
X120530180Y-89960839D02*
X120530180Y-89579887D01*
X120530180Y-89579887D02*
X120482561Y-89484649D01*
X120482561Y-89484649D02*
X120434942Y-89437030D01*
X120434942Y-89437030D02*
X120339704Y-89389411D01*
X120339704Y-89389411D02*
X120196847Y-89389411D01*
X120196847Y-89389411D02*
X120101609Y-89437030D01*
X120101609Y-89437030D02*
X120053990Y-89484649D01*
X120053990Y-89484649D02*
X120006371Y-89579887D01*
X120006371Y-89579887D02*
X120006371Y-89960839D01*
X119530180Y-88484649D02*
X119530180Y-88960839D01*
X119530180Y-88960839D02*
X120530180Y-88960839D01*
X120053990Y-88151315D02*
X120053990Y-87817982D01*
X119530180Y-87675125D02*
X119530180Y-88151315D01*
X119530180Y-88151315D02*
X120530180Y-88151315D01*
X120530180Y-88151315D02*
X120530180Y-87675125D01*
X114230180Y-98466792D02*
X114706371Y-98800125D01*
X114230180Y-99038220D02*
X115230180Y-99038220D01*
X115230180Y-99038220D02*
X115230180Y-98657268D01*
X115230180Y-98657268D02*
X115182561Y-98562030D01*
X115182561Y-98562030D02*
X115134942Y-98514411D01*
X115134942Y-98514411D02*
X115039704Y-98466792D01*
X115039704Y-98466792D02*
X114896847Y-98466792D01*
X114896847Y-98466792D02*
X114801609Y-98514411D01*
X114801609Y-98514411D02*
X114753990Y-98562030D01*
X114753990Y-98562030D02*
X114706371Y-98657268D01*
X114706371Y-98657268D02*
X114706371Y-99038220D01*
X114230180Y-98038220D02*
X115230180Y-98038220D01*
X115230180Y-98038220D02*
X115230180Y-97800125D01*
X115230180Y-97800125D02*
X115182561Y-97657268D01*
X115182561Y-97657268D02*
X115087323Y-97562030D01*
X115087323Y-97562030D02*
X114992085Y-97514411D01*
X114992085Y-97514411D02*
X114801609Y-97466792D01*
X114801609Y-97466792D02*
X114658752Y-97466792D01*
X114658752Y-97466792D02*
X114468276Y-97514411D01*
X114468276Y-97514411D02*
X114373038Y-97562030D01*
X114373038Y-97562030D02*
X114277800Y-97657268D01*
X114277800Y-97657268D02*
X114230180Y-97800125D01*
X114230180Y-97800125D02*
X114230180Y-98038220D01*
X122002800Y-99060839D02*
X121955180Y-98917982D01*
X121955180Y-98917982D02*
X121955180Y-98679887D01*
X121955180Y-98679887D02*
X122002800Y-98584649D01*
X122002800Y-98584649D02*
X122050419Y-98537030D01*
X122050419Y-98537030D02*
X122145657Y-98489411D01*
X122145657Y-98489411D02*
X122240895Y-98489411D01*
X122240895Y-98489411D02*
X122336133Y-98537030D01*
X122336133Y-98537030D02*
X122383752Y-98584649D01*
X122383752Y-98584649D02*
X122431371Y-98679887D01*
X122431371Y-98679887D02*
X122478990Y-98870363D01*
X122478990Y-98870363D02*
X122526609Y-98965601D01*
X122526609Y-98965601D02*
X122574228Y-99013220D01*
X122574228Y-99013220D02*
X122669466Y-99060839D01*
X122669466Y-99060839D02*
X122764704Y-99060839D01*
X122764704Y-99060839D02*
X122859942Y-99013220D01*
X122859942Y-99013220D02*
X122907561Y-98965601D01*
X122907561Y-98965601D02*
X122955180Y-98870363D01*
X122955180Y-98870363D02*
X122955180Y-98632268D01*
X122955180Y-98632268D02*
X122907561Y-98489411D01*
X122050419Y-97489411D02*
X122002800Y-97537030D01*
X122002800Y-97537030D02*
X121955180Y-97679887D01*
X121955180Y-97679887D02*
X121955180Y-97775125D01*
X121955180Y-97775125D02*
X122002800Y-97917982D01*
X122002800Y-97917982D02*
X122098038Y-98013220D01*
X122098038Y-98013220D02*
X122193276Y-98060839D01*
X122193276Y-98060839D02*
X122383752Y-98108458D01*
X122383752Y-98108458D02*
X122526609Y-98108458D01*
X122526609Y-98108458D02*
X122717085Y-98060839D01*
X122717085Y-98060839D02*
X122812323Y-98013220D01*
X122812323Y-98013220D02*
X122907561Y-97917982D01*
X122907561Y-97917982D02*
X122955180Y-97775125D01*
X122955180Y-97775125D02*
X122955180Y-97679887D01*
X122955180Y-97679887D02*
X122907561Y-97537030D01*
X122907561Y-97537030D02*
X122859942Y-97489411D01*
X121955180Y-96584649D02*
X121955180Y-97060839D01*
X121955180Y-97060839D02*
X122955180Y-97060839D01*
X121955180Y-96251315D02*
X122955180Y-96251315D01*
X121955180Y-95679887D02*
X122526609Y-96108458D01*
X122955180Y-95679887D02*
X122383752Y-96251315D01*
X114355180Y-92266792D02*
X114831371Y-92600125D01*
X114355180Y-92838220D02*
X115355180Y-92838220D01*
X115355180Y-92838220D02*
X115355180Y-92457268D01*
X115355180Y-92457268D02*
X115307561Y-92362030D01*
X115307561Y-92362030D02*
X115259942Y-92314411D01*
X115259942Y-92314411D02*
X115164704Y-92266792D01*
X115164704Y-92266792D02*
X115021847Y-92266792D01*
X115021847Y-92266792D02*
X114926609Y-92314411D01*
X114926609Y-92314411D02*
X114878990Y-92362030D01*
X114878990Y-92362030D02*
X114831371Y-92457268D01*
X114831371Y-92457268D02*
X114831371Y-92838220D01*
X114878990Y-91838220D02*
X114878990Y-91504887D01*
X114355180Y-91362030D02*
X114355180Y-91838220D01*
X114355180Y-91838220D02*
X115355180Y-91838220D01*
X115355180Y-91838220D02*
X115355180Y-91362030D01*
X114402800Y-90981077D02*
X114355180Y-90838220D01*
X114355180Y-90838220D02*
X114355180Y-90600125D01*
X114355180Y-90600125D02*
X114402800Y-90504887D01*
X114402800Y-90504887D02*
X114450419Y-90457268D01*
X114450419Y-90457268D02*
X114545657Y-90409649D01*
X114545657Y-90409649D02*
X114640895Y-90409649D01*
X114640895Y-90409649D02*
X114736133Y-90457268D01*
X114736133Y-90457268D02*
X114783752Y-90504887D01*
X114783752Y-90504887D02*
X114831371Y-90600125D01*
X114831371Y-90600125D02*
X114878990Y-90790601D01*
X114878990Y-90790601D02*
X114926609Y-90885839D01*
X114926609Y-90885839D02*
X114974228Y-90933458D01*
X114974228Y-90933458D02*
X115069466Y-90981077D01*
X115069466Y-90981077D02*
X115164704Y-90981077D01*
X115164704Y-90981077D02*
X115259942Y-90933458D01*
X115259942Y-90933458D02*
X115307561Y-90885839D01*
X115307561Y-90885839D02*
X115355180Y-90790601D01*
X115355180Y-90790601D02*
X115355180Y-90552506D01*
X115355180Y-90552506D02*
X115307561Y-90409649D01*
X114355180Y-89457268D02*
X114355180Y-90028696D01*
X114355180Y-89742982D02*
X115355180Y-89742982D01*
X115355180Y-89742982D02*
X115212323Y-89838220D01*
X115212323Y-89838220D02*
X115117085Y-89933458D01*
X115117085Y-89933458D02*
X115069466Y-90028696D01*
X119355704Y-67778696D02*
X119736657Y-68045363D01*
X119355704Y-68235839D02*
X120155704Y-68235839D01*
X120155704Y-68235839D02*
X120155704Y-67931077D01*
X120155704Y-67931077D02*
X120117609Y-67854887D01*
X120117609Y-67854887D02*
X120079514Y-67816792D01*
X120079514Y-67816792D02*
X120003323Y-67778696D01*
X120003323Y-67778696D02*
X119889038Y-67778696D01*
X119889038Y-67778696D02*
X119812847Y-67816792D01*
X119812847Y-67816792D02*
X119774752Y-67854887D01*
X119774752Y-67854887D02*
X119736657Y-67931077D01*
X119736657Y-67931077D02*
X119736657Y-68235839D01*
X119393800Y-67473935D02*
X119355704Y-67359649D01*
X119355704Y-67359649D02*
X119355704Y-67169173D01*
X119355704Y-67169173D02*
X119393800Y-67092982D01*
X119393800Y-67092982D02*
X119431895Y-67054887D01*
X119431895Y-67054887D02*
X119508085Y-67016792D01*
X119508085Y-67016792D02*
X119584276Y-67016792D01*
X119584276Y-67016792D02*
X119660466Y-67054887D01*
X119660466Y-67054887D02*
X119698561Y-67092982D01*
X119698561Y-67092982D02*
X119736657Y-67169173D01*
X119736657Y-67169173D02*
X119774752Y-67321554D01*
X119774752Y-67321554D02*
X119812847Y-67397744D01*
X119812847Y-67397744D02*
X119850942Y-67435839D01*
X119850942Y-67435839D02*
X119927133Y-67473935D01*
X119927133Y-67473935D02*
X120003323Y-67473935D01*
X120003323Y-67473935D02*
X120079514Y-67435839D01*
X120079514Y-67435839D02*
X120117609Y-67397744D01*
X120117609Y-67397744D02*
X120155704Y-67321554D01*
X120155704Y-67321554D02*
X120155704Y-67131077D01*
X120155704Y-67131077D02*
X120117609Y-67016792D01*
X120155704Y-66788220D02*
X120155704Y-66331077D01*
X119355704Y-66559649D02*
X120155704Y-66559649D01*
X133042404Y-113874819D02*
X133042404Y-114684342D01*
X133042404Y-114684342D02*
X132994785Y-114779580D01*
X132994785Y-114779580D02*
X132947166Y-114827200D01*
X132947166Y-114827200D02*
X132851928Y-114874819D01*
X132851928Y-114874819D02*
X132661452Y-114874819D01*
X132661452Y-114874819D02*
X132566214Y-114827200D01*
X132566214Y-114827200D02*
X132518595Y-114779580D01*
X132518595Y-114779580D02*
X132470976Y-114684342D01*
X132470976Y-114684342D02*
X132470976Y-113874819D01*
X132042404Y-113970057D02*
X131994785Y-113922438D01*
X131994785Y-113922438D02*
X131899547Y-113874819D01*
X131899547Y-113874819D02*
X131661452Y-113874819D01*
X131661452Y-113874819D02*
X131566214Y-113922438D01*
X131566214Y-113922438D02*
X131518595Y-113970057D01*
X131518595Y-113970057D02*
X131470976Y-114065295D01*
X131470976Y-114065295D02*
X131470976Y-114160533D01*
X131470976Y-114160533D02*
X131518595Y-114303390D01*
X131518595Y-114303390D02*
X132090023Y-114874819D01*
X132090023Y-114874819D02*
X131470976Y-114874819D01*
X128990319Y-113077142D02*
X128514128Y-112743809D01*
X128990319Y-112505714D02*
X127990319Y-112505714D01*
X127990319Y-112505714D02*
X127990319Y-112886666D01*
X127990319Y-112886666D02*
X128037938Y-112981904D01*
X128037938Y-112981904D02*
X128085557Y-113029523D01*
X128085557Y-113029523D02*
X128180795Y-113077142D01*
X128180795Y-113077142D02*
X128323652Y-113077142D01*
X128323652Y-113077142D02*
X128418890Y-113029523D01*
X128418890Y-113029523D02*
X128466509Y-112981904D01*
X128466509Y-112981904D02*
X128514128Y-112886666D01*
X128514128Y-112886666D02*
X128514128Y-112505714D01*
X128990319Y-114029523D02*
X128990319Y-113458095D01*
X128990319Y-113743809D02*
X127990319Y-113743809D01*
X127990319Y-113743809D02*
X128133176Y-113648571D01*
X128133176Y-113648571D02*
X128228414Y-113553333D01*
X128228414Y-113553333D02*
X128276033Y-113458095D01*
X127990319Y-114886666D02*
X127990319Y-114696190D01*
X127990319Y-114696190D02*
X128037938Y-114600952D01*
X128037938Y-114600952D02*
X128085557Y-114553333D01*
X128085557Y-114553333D02*
X128228414Y-114458095D01*
X128228414Y-114458095D02*
X128418890Y-114410476D01*
X128418890Y-114410476D02*
X128799842Y-114410476D01*
X128799842Y-114410476D02*
X128895080Y-114458095D01*
X128895080Y-114458095D02*
X128942700Y-114505714D01*
X128942700Y-114505714D02*
X128990319Y-114600952D01*
X128990319Y-114600952D02*
X128990319Y-114791428D01*
X128990319Y-114791428D02*
X128942700Y-114886666D01*
X128942700Y-114886666D02*
X128895080Y-114934285D01*
X128895080Y-114934285D02*
X128799842Y-114981904D01*
X128799842Y-114981904D02*
X128561747Y-114981904D01*
X128561747Y-114981904D02*
X128466509Y-114934285D01*
X128466509Y-114934285D02*
X128418890Y-114886666D01*
X128418890Y-114886666D02*
X128371271Y-114791428D01*
X128371271Y-114791428D02*
X128371271Y-114600952D01*
X128371271Y-114600952D02*
X128418890Y-114505714D01*
X128418890Y-114505714D02*
X128466509Y-114458095D01*
X128466509Y-114458095D02*
X128561747Y-114410476D01*
X135020357Y-147049580D02*
X135067976Y-147097200D01*
X135067976Y-147097200D02*
X135210833Y-147144819D01*
X135210833Y-147144819D02*
X135306071Y-147144819D01*
X135306071Y-147144819D02*
X135448928Y-147097200D01*
X135448928Y-147097200D02*
X135544166Y-147001961D01*
X135544166Y-147001961D02*
X135591785Y-146906723D01*
X135591785Y-146906723D02*
X135639404Y-146716247D01*
X135639404Y-146716247D02*
X135639404Y-146573390D01*
X135639404Y-146573390D02*
X135591785Y-146382914D01*
X135591785Y-146382914D02*
X135544166Y-146287676D01*
X135544166Y-146287676D02*
X135448928Y-146192438D01*
X135448928Y-146192438D02*
X135306071Y-146144819D01*
X135306071Y-146144819D02*
X135210833Y-146144819D01*
X135210833Y-146144819D02*
X135067976Y-146192438D01*
X135067976Y-146192438D02*
X135020357Y-146240057D01*
X134067976Y-147144819D02*
X134639404Y-147144819D01*
X134353690Y-147144819D02*
X134353690Y-146144819D01*
X134353690Y-146144819D02*
X134448928Y-146287676D01*
X134448928Y-146287676D02*
X134544166Y-146382914D01*
X134544166Y-146382914D02*
X134639404Y-146430533D01*
X133687023Y-146240057D02*
X133639404Y-146192438D01*
X133639404Y-146192438D02*
X133544166Y-146144819D01*
X133544166Y-146144819D02*
X133306071Y-146144819D01*
X133306071Y-146144819D02*
X133210833Y-146192438D01*
X133210833Y-146192438D02*
X133163214Y-146240057D01*
X133163214Y-146240057D02*
X133115595Y-146335295D01*
X133115595Y-146335295D02*
X133115595Y-146430533D01*
X133115595Y-146430533D02*
X133163214Y-146573390D01*
X133163214Y-146573390D02*
X133734642Y-147144819D01*
X133734642Y-147144819D02*
X133115595Y-147144819D01*
X133698357Y-140604580D02*
X133745976Y-140652200D01*
X133745976Y-140652200D02*
X133888833Y-140699819D01*
X133888833Y-140699819D02*
X133984071Y-140699819D01*
X133984071Y-140699819D02*
X134126928Y-140652200D01*
X134126928Y-140652200D02*
X134222166Y-140556961D01*
X134222166Y-140556961D02*
X134269785Y-140461723D01*
X134269785Y-140461723D02*
X134317404Y-140271247D01*
X134317404Y-140271247D02*
X134317404Y-140128390D01*
X134317404Y-140128390D02*
X134269785Y-139937914D01*
X134269785Y-139937914D02*
X134222166Y-139842676D01*
X134222166Y-139842676D02*
X134126928Y-139747438D01*
X134126928Y-139747438D02*
X133984071Y-139699819D01*
X133984071Y-139699819D02*
X133888833Y-139699819D01*
X133888833Y-139699819D02*
X133745976Y-139747438D01*
X133745976Y-139747438D02*
X133698357Y-139795057D01*
X132745976Y-140699819D02*
X133317404Y-140699819D01*
X133031690Y-140699819D02*
X133031690Y-139699819D01*
X133031690Y-139699819D02*
X133126928Y-139842676D01*
X133126928Y-139842676D02*
X133222166Y-139937914D01*
X133222166Y-139937914D02*
X133317404Y-139985533D01*
X132412642Y-139699819D02*
X131745976Y-139699819D01*
X131745976Y-139699819D02*
X132174547Y-140699819D01*
X138895357Y-109319819D02*
X139228690Y-108843628D01*
X139466785Y-109319819D02*
X139466785Y-108319819D01*
X139466785Y-108319819D02*
X139085833Y-108319819D01*
X139085833Y-108319819D02*
X138990595Y-108367438D01*
X138990595Y-108367438D02*
X138942976Y-108415057D01*
X138942976Y-108415057D02*
X138895357Y-108510295D01*
X138895357Y-108510295D02*
X138895357Y-108653152D01*
X138895357Y-108653152D02*
X138942976Y-108748390D01*
X138942976Y-108748390D02*
X138990595Y-108796009D01*
X138990595Y-108796009D02*
X139085833Y-108843628D01*
X139085833Y-108843628D02*
X139466785Y-108843628D01*
X137942976Y-109319819D02*
X138514404Y-109319819D01*
X138228690Y-109319819D02*
X138228690Y-108319819D01*
X138228690Y-108319819D02*
X138323928Y-108462676D01*
X138323928Y-108462676D02*
X138419166Y-108557914D01*
X138419166Y-108557914D02*
X138514404Y-108605533D01*
X137466785Y-109319819D02*
X137276309Y-109319819D01*
X137276309Y-109319819D02*
X137181071Y-109272200D01*
X137181071Y-109272200D02*
X137133452Y-109224580D01*
X137133452Y-109224580D02*
X137038214Y-109081723D01*
X137038214Y-109081723D02*
X136990595Y-108891247D01*
X136990595Y-108891247D02*
X136990595Y-108510295D01*
X136990595Y-108510295D02*
X137038214Y-108415057D01*
X137038214Y-108415057D02*
X137085833Y-108367438D01*
X137085833Y-108367438D02*
X137181071Y-108319819D01*
X137181071Y-108319819D02*
X137371547Y-108319819D01*
X137371547Y-108319819D02*
X137466785Y-108367438D01*
X137466785Y-108367438D02*
X137514404Y-108415057D01*
X137514404Y-108415057D02*
X137562023Y-108510295D01*
X137562023Y-108510295D02*
X137562023Y-108748390D01*
X137562023Y-108748390D02*
X137514404Y-108843628D01*
X137514404Y-108843628D02*
X137466785Y-108891247D01*
X137466785Y-108891247D02*
X137371547Y-108938866D01*
X137371547Y-108938866D02*
X137181071Y-108938866D01*
X137181071Y-108938866D02*
X137085833Y-108891247D01*
X137085833Y-108891247D02*
X137038214Y-108843628D01*
X137038214Y-108843628D02*
X136990595Y-108748390D01*
X130570080Y-130622142D02*
X130617700Y-130574523D01*
X130617700Y-130574523D02*
X130665319Y-130431666D01*
X130665319Y-130431666D02*
X130665319Y-130336428D01*
X130665319Y-130336428D02*
X130617700Y-130193571D01*
X130617700Y-130193571D02*
X130522461Y-130098333D01*
X130522461Y-130098333D02*
X130427223Y-130050714D01*
X130427223Y-130050714D02*
X130236747Y-130003095D01*
X130236747Y-130003095D02*
X130093890Y-130003095D01*
X130093890Y-130003095D02*
X129903414Y-130050714D01*
X129903414Y-130050714D02*
X129808176Y-130098333D01*
X129808176Y-130098333D02*
X129712938Y-130193571D01*
X129712938Y-130193571D02*
X129665319Y-130336428D01*
X129665319Y-130336428D02*
X129665319Y-130431666D01*
X129665319Y-130431666D02*
X129712938Y-130574523D01*
X129712938Y-130574523D02*
X129760557Y-130622142D01*
X129760557Y-131003095D02*
X129712938Y-131050714D01*
X129712938Y-131050714D02*
X129665319Y-131145952D01*
X129665319Y-131145952D02*
X129665319Y-131384047D01*
X129665319Y-131384047D02*
X129712938Y-131479285D01*
X129712938Y-131479285D02*
X129760557Y-131526904D01*
X129760557Y-131526904D02*
X129855795Y-131574523D01*
X129855795Y-131574523D02*
X129951033Y-131574523D01*
X129951033Y-131574523D02*
X130093890Y-131526904D01*
X130093890Y-131526904D02*
X130665319Y-130955476D01*
X130665319Y-130955476D02*
X130665319Y-131574523D01*
X129665319Y-131907857D02*
X129665319Y-132526904D01*
X129665319Y-132526904D02*
X130046271Y-132193571D01*
X130046271Y-132193571D02*
X130046271Y-132336428D01*
X130046271Y-132336428D02*
X130093890Y-132431666D01*
X130093890Y-132431666D02*
X130141509Y-132479285D01*
X130141509Y-132479285D02*
X130236747Y-132526904D01*
X130236747Y-132526904D02*
X130474842Y-132526904D01*
X130474842Y-132526904D02*
X130570080Y-132479285D01*
X130570080Y-132479285D02*
X130617700Y-132431666D01*
X130617700Y-132431666D02*
X130665319Y-132336428D01*
X130665319Y-132336428D02*
X130665319Y-132050714D01*
X130665319Y-132050714D02*
X130617700Y-131955476D01*
X130617700Y-131955476D02*
X130570080Y-131907857D01*
X128940319Y-124452142D02*
X128464128Y-124118809D01*
X128940319Y-123880714D02*
X127940319Y-123880714D01*
X127940319Y-123880714D02*
X127940319Y-124261666D01*
X127940319Y-124261666D02*
X127987938Y-124356904D01*
X127987938Y-124356904D02*
X128035557Y-124404523D01*
X128035557Y-124404523D02*
X128130795Y-124452142D01*
X128130795Y-124452142D02*
X128273652Y-124452142D01*
X128273652Y-124452142D02*
X128368890Y-124404523D01*
X128368890Y-124404523D02*
X128416509Y-124356904D01*
X128416509Y-124356904D02*
X128464128Y-124261666D01*
X128464128Y-124261666D02*
X128464128Y-123880714D01*
X128940319Y-125404523D02*
X128940319Y-124833095D01*
X128940319Y-125118809D02*
X127940319Y-125118809D01*
X127940319Y-125118809D02*
X128083176Y-125023571D01*
X128083176Y-125023571D02*
X128178414Y-124928333D01*
X128178414Y-124928333D02*
X128226033Y-124833095D01*
X127940319Y-125737857D02*
X127940319Y-126404523D01*
X127940319Y-126404523D02*
X128940319Y-125975952D01*
X138090080Y-132997142D02*
X138137700Y-132949523D01*
X138137700Y-132949523D02*
X138185319Y-132806666D01*
X138185319Y-132806666D02*
X138185319Y-132711428D01*
X138185319Y-132711428D02*
X138137700Y-132568571D01*
X138137700Y-132568571D02*
X138042461Y-132473333D01*
X138042461Y-132473333D02*
X137947223Y-132425714D01*
X137947223Y-132425714D02*
X137756747Y-132378095D01*
X137756747Y-132378095D02*
X137613890Y-132378095D01*
X137613890Y-132378095D02*
X137423414Y-132425714D01*
X137423414Y-132425714D02*
X137328176Y-132473333D01*
X137328176Y-132473333D02*
X137232938Y-132568571D01*
X137232938Y-132568571D02*
X137185319Y-132711428D01*
X137185319Y-132711428D02*
X137185319Y-132806666D01*
X137185319Y-132806666D02*
X137232938Y-132949523D01*
X137232938Y-132949523D02*
X137280557Y-132997142D01*
X137280557Y-133378095D02*
X137232938Y-133425714D01*
X137232938Y-133425714D02*
X137185319Y-133520952D01*
X137185319Y-133520952D02*
X137185319Y-133759047D01*
X137185319Y-133759047D02*
X137232938Y-133854285D01*
X137232938Y-133854285D02*
X137280557Y-133901904D01*
X137280557Y-133901904D02*
X137375795Y-133949523D01*
X137375795Y-133949523D02*
X137471033Y-133949523D01*
X137471033Y-133949523D02*
X137613890Y-133901904D01*
X137613890Y-133901904D02*
X138185319Y-133330476D01*
X138185319Y-133330476D02*
X138185319Y-133949523D01*
X137280557Y-134330476D02*
X137232938Y-134378095D01*
X137232938Y-134378095D02*
X137185319Y-134473333D01*
X137185319Y-134473333D02*
X137185319Y-134711428D01*
X137185319Y-134711428D02*
X137232938Y-134806666D01*
X137232938Y-134806666D02*
X137280557Y-134854285D01*
X137280557Y-134854285D02*
X137375795Y-134901904D01*
X137375795Y-134901904D02*
X137471033Y-134901904D01*
X137471033Y-134901904D02*
X137613890Y-134854285D01*
X137613890Y-134854285D02*
X138185319Y-134282857D01*
X138185319Y-134282857D02*
X138185319Y-134901904D01*
X133042404Y-119299819D02*
X133042404Y-120109342D01*
X133042404Y-120109342D02*
X132994785Y-120204580D01*
X132994785Y-120204580D02*
X132947166Y-120252200D01*
X132947166Y-120252200D02*
X132851928Y-120299819D01*
X132851928Y-120299819D02*
X132661452Y-120299819D01*
X132661452Y-120299819D02*
X132566214Y-120252200D01*
X132566214Y-120252200D02*
X132518595Y-120204580D01*
X132518595Y-120204580D02*
X132470976Y-120109342D01*
X132470976Y-120109342D02*
X132470976Y-119299819D01*
X131566214Y-119633152D02*
X131566214Y-120299819D01*
X131804309Y-119252200D02*
X132042404Y-119966485D01*
X132042404Y-119966485D02*
X131423357Y-119966485D01*
X128570080Y-130597142D02*
X128617700Y-130549523D01*
X128617700Y-130549523D02*
X128665319Y-130406666D01*
X128665319Y-130406666D02*
X128665319Y-130311428D01*
X128665319Y-130311428D02*
X128617700Y-130168571D01*
X128617700Y-130168571D02*
X128522461Y-130073333D01*
X128522461Y-130073333D02*
X128427223Y-130025714D01*
X128427223Y-130025714D02*
X128236747Y-129978095D01*
X128236747Y-129978095D02*
X128093890Y-129978095D01*
X128093890Y-129978095D02*
X127903414Y-130025714D01*
X127903414Y-130025714D02*
X127808176Y-130073333D01*
X127808176Y-130073333D02*
X127712938Y-130168571D01*
X127712938Y-130168571D02*
X127665319Y-130311428D01*
X127665319Y-130311428D02*
X127665319Y-130406666D01*
X127665319Y-130406666D02*
X127712938Y-130549523D01*
X127712938Y-130549523D02*
X127760557Y-130597142D01*
X128665319Y-131549523D02*
X128665319Y-130978095D01*
X128665319Y-131263809D02*
X127665319Y-131263809D01*
X127665319Y-131263809D02*
X127808176Y-131168571D01*
X127808176Y-131168571D02*
X127903414Y-131073333D01*
X127903414Y-131073333D02*
X127951033Y-130978095D01*
X128665319Y-132501904D02*
X128665319Y-131930476D01*
X128665319Y-132216190D02*
X127665319Y-132216190D01*
X127665319Y-132216190D02*
X127808176Y-132120952D01*
X127808176Y-132120952D02*
X127903414Y-132025714D01*
X127903414Y-132025714D02*
X127951033Y-131930476D01*
X132967404Y-125299819D02*
X132967404Y-126109342D01*
X132967404Y-126109342D02*
X132919785Y-126204580D01*
X132919785Y-126204580D02*
X132872166Y-126252200D01*
X132872166Y-126252200D02*
X132776928Y-126299819D01*
X132776928Y-126299819D02*
X132586452Y-126299819D01*
X132586452Y-126299819D02*
X132491214Y-126252200D01*
X132491214Y-126252200D02*
X132443595Y-126204580D01*
X132443595Y-126204580D02*
X132395976Y-126109342D01*
X132395976Y-126109342D02*
X132395976Y-125299819D01*
X132015023Y-125299819D02*
X131395976Y-125299819D01*
X131395976Y-125299819D02*
X131729309Y-125680771D01*
X131729309Y-125680771D02*
X131586452Y-125680771D01*
X131586452Y-125680771D02*
X131491214Y-125728390D01*
X131491214Y-125728390D02*
X131443595Y-125776009D01*
X131443595Y-125776009D02*
X131395976Y-125871247D01*
X131395976Y-125871247D02*
X131395976Y-126109342D01*
X131395976Y-126109342D02*
X131443595Y-126204580D01*
X131443595Y-126204580D02*
X131491214Y-126252200D01*
X131491214Y-126252200D02*
X131586452Y-126299819D01*
X131586452Y-126299819D02*
X131872166Y-126299819D01*
X131872166Y-126299819D02*
X131967404Y-126252200D01*
X131967404Y-126252200D02*
X132015023Y-126204580D01*
X136380319Y-114202142D02*
X135904128Y-113868809D01*
X136380319Y-113630714D02*
X135380319Y-113630714D01*
X135380319Y-113630714D02*
X135380319Y-114011666D01*
X135380319Y-114011666D02*
X135427938Y-114106904D01*
X135427938Y-114106904D02*
X135475557Y-114154523D01*
X135475557Y-114154523D02*
X135570795Y-114202142D01*
X135570795Y-114202142D02*
X135713652Y-114202142D01*
X135713652Y-114202142D02*
X135808890Y-114154523D01*
X135808890Y-114154523D02*
X135856509Y-114106904D01*
X135856509Y-114106904D02*
X135904128Y-114011666D01*
X135904128Y-114011666D02*
X135904128Y-113630714D01*
X135380319Y-114535476D02*
X135380319Y-115154523D01*
X135380319Y-115154523D02*
X135761271Y-114821190D01*
X135761271Y-114821190D02*
X135761271Y-114964047D01*
X135761271Y-114964047D02*
X135808890Y-115059285D01*
X135808890Y-115059285D02*
X135856509Y-115106904D01*
X135856509Y-115106904D02*
X135951747Y-115154523D01*
X135951747Y-115154523D02*
X136189842Y-115154523D01*
X136189842Y-115154523D02*
X136285080Y-115106904D01*
X136285080Y-115106904D02*
X136332700Y-115059285D01*
X136332700Y-115059285D02*
X136380319Y-114964047D01*
X136380319Y-114964047D02*
X136380319Y-114678333D01*
X136380319Y-114678333D02*
X136332700Y-114583095D01*
X136332700Y-114583095D02*
X136285080Y-114535476D01*
X136380319Y-116106904D02*
X136380319Y-115535476D01*
X136380319Y-115821190D02*
X135380319Y-115821190D01*
X135380319Y-115821190D02*
X135523176Y-115725952D01*
X135523176Y-115725952D02*
X135618414Y-115630714D01*
X135618414Y-115630714D02*
X135666033Y-115535476D01*
X126570080Y-130597142D02*
X126617700Y-130549523D01*
X126617700Y-130549523D02*
X126665319Y-130406666D01*
X126665319Y-130406666D02*
X126665319Y-130311428D01*
X126665319Y-130311428D02*
X126617700Y-130168571D01*
X126617700Y-130168571D02*
X126522461Y-130073333D01*
X126522461Y-130073333D02*
X126427223Y-130025714D01*
X126427223Y-130025714D02*
X126236747Y-129978095D01*
X126236747Y-129978095D02*
X126093890Y-129978095D01*
X126093890Y-129978095D02*
X125903414Y-130025714D01*
X125903414Y-130025714D02*
X125808176Y-130073333D01*
X125808176Y-130073333D02*
X125712938Y-130168571D01*
X125712938Y-130168571D02*
X125665319Y-130311428D01*
X125665319Y-130311428D02*
X125665319Y-130406666D01*
X125665319Y-130406666D02*
X125712938Y-130549523D01*
X125712938Y-130549523D02*
X125760557Y-130597142D01*
X126665319Y-131549523D02*
X126665319Y-130978095D01*
X126665319Y-131263809D02*
X125665319Y-131263809D01*
X125665319Y-131263809D02*
X125808176Y-131168571D01*
X125808176Y-131168571D02*
X125903414Y-131073333D01*
X125903414Y-131073333D02*
X125951033Y-130978095D01*
X125665319Y-131882857D02*
X125665319Y-132501904D01*
X125665319Y-132501904D02*
X126046271Y-132168571D01*
X126046271Y-132168571D02*
X126046271Y-132311428D01*
X126046271Y-132311428D02*
X126093890Y-132406666D01*
X126093890Y-132406666D02*
X126141509Y-132454285D01*
X126141509Y-132454285D02*
X126236747Y-132501904D01*
X126236747Y-132501904D02*
X126474842Y-132501904D01*
X126474842Y-132501904D02*
X126570080Y-132454285D01*
X126570080Y-132454285D02*
X126617700Y-132406666D01*
X126617700Y-132406666D02*
X126665319Y-132311428D01*
X126665319Y-132311428D02*
X126665319Y-132025714D01*
X126665319Y-132025714D02*
X126617700Y-131930476D01*
X126617700Y-131930476D02*
X126570080Y-131882857D01*
D11*
X128270262Y-137039318D02*
X128270262Y-135769318D01*
X126939785Y-136918365D02*
X127000261Y-136978842D01*
X127000261Y-136978842D02*
X127181690Y-137039318D01*
X127181690Y-137039318D02*
X127302642Y-137039318D01*
X127302642Y-137039318D02*
X127484071Y-136978842D01*
X127484071Y-136978842D02*
X127605023Y-136857889D01*
X127605023Y-136857889D02*
X127665500Y-136736937D01*
X127665500Y-136736937D02*
X127725976Y-136495032D01*
X127725976Y-136495032D02*
X127725976Y-136313603D01*
X127725976Y-136313603D02*
X127665500Y-136071699D01*
X127665500Y-136071699D02*
X127605023Y-135950746D01*
X127605023Y-135950746D02*
X127484071Y-135829794D01*
X127484071Y-135829794D02*
X127302642Y-135769318D01*
X127302642Y-135769318D02*
X127181690Y-135769318D01*
X127181690Y-135769318D02*
X127000261Y-135829794D01*
X127000261Y-135829794D02*
X126939785Y-135890270D01*
X125730261Y-137039318D02*
X126455976Y-137039318D01*
X126093119Y-137039318D02*
X126093119Y-135769318D01*
X126093119Y-135769318D02*
X126214071Y-135950746D01*
X126214071Y-135950746D02*
X126335023Y-136071699D01*
X126335023Y-136071699D02*
X126455976Y-136132175D01*
D10*
X136405319Y-120052142D02*
X135929128Y-119718809D01*
X136405319Y-119480714D02*
X135405319Y-119480714D01*
X135405319Y-119480714D02*
X135405319Y-119861666D01*
X135405319Y-119861666D02*
X135452938Y-119956904D01*
X135452938Y-119956904D02*
X135500557Y-120004523D01*
X135500557Y-120004523D02*
X135595795Y-120052142D01*
X135595795Y-120052142D02*
X135738652Y-120052142D01*
X135738652Y-120052142D02*
X135833890Y-120004523D01*
X135833890Y-120004523D02*
X135881509Y-119956904D01*
X135881509Y-119956904D02*
X135929128Y-119861666D01*
X135929128Y-119861666D02*
X135929128Y-119480714D01*
X136405319Y-121004523D02*
X136405319Y-120433095D01*
X136405319Y-120718809D02*
X135405319Y-120718809D01*
X135405319Y-120718809D02*
X135548176Y-120623571D01*
X135548176Y-120623571D02*
X135643414Y-120528333D01*
X135643414Y-120528333D02*
X135691033Y-120433095D01*
X135833890Y-121575952D02*
X135786271Y-121480714D01*
X135786271Y-121480714D02*
X135738652Y-121433095D01*
X135738652Y-121433095D02*
X135643414Y-121385476D01*
X135643414Y-121385476D02*
X135595795Y-121385476D01*
X135595795Y-121385476D02*
X135500557Y-121433095D01*
X135500557Y-121433095D02*
X135452938Y-121480714D01*
X135452938Y-121480714D02*
X135405319Y-121575952D01*
X135405319Y-121575952D02*
X135405319Y-121766428D01*
X135405319Y-121766428D02*
X135452938Y-121861666D01*
X135452938Y-121861666D02*
X135500557Y-121909285D01*
X135500557Y-121909285D02*
X135595795Y-121956904D01*
X135595795Y-121956904D02*
X135643414Y-121956904D01*
X135643414Y-121956904D02*
X135738652Y-121909285D01*
X135738652Y-121909285D02*
X135786271Y-121861666D01*
X135786271Y-121861666D02*
X135833890Y-121766428D01*
X135833890Y-121766428D02*
X135833890Y-121575952D01*
X135833890Y-121575952D02*
X135881509Y-121480714D01*
X135881509Y-121480714D02*
X135929128Y-121433095D01*
X135929128Y-121433095D02*
X136024366Y-121385476D01*
X136024366Y-121385476D02*
X136214842Y-121385476D01*
X136214842Y-121385476D02*
X136310080Y-121433095D01*
X136310080Y-121433095D02*
X136357700Y-121480714D01*
X136357700Y-121480714D02*
X136405319Y-121575952D01*
X136405319Y-121575952D02*
X136405319Y-121766428D01*
X136405319Y-121766428D02*
X136357700Y-121861666D01*
X136357700Y-121861666D02*
X136310080Y-121909285D01*
X136310080Y-121909285D02*
X136214842Y-121956904D01*
X136214842Y-121956904D02*
X136024366Y-121956904D01*
X136024366Y-121956904D02*
X135929128Y-121909285D01*
X135929128Y-121909285D02*
X135881509Y-121861666D01*
X135881509Y-121861666D02*
X135833890Y-121766428D01*
X127670357Y-140104580D02*
X127717976Y-140152200D01*
X127717976Y-140152200D02*
X127860833Y-140199819D01*
X127860833Y-140199819D02*
X127956071Y-140199819D01*
X127956071Y-140199819D02*
X128098928Y-140152200D01*
X128098928Y-140152200D02*
X128194166Y-140056961D01*
X128194166Y-140056961D02*
X128241785Y-139961723D01*
X128241785Y-139961723D02*
X128289404Y-139771247D01*
X128289404Y-139771247D02*
X128289404Y-139628390D01*
X128289404Y-139628390D02*
X128241785Y-139437914D01*
X128241785Y-139437914D02*
X128194166Y-139342676D01*
X128194166Y-139342676D02*
X128098928Y-139247438D01*
X128098928Y-139247438D02*
X127956071Y-139199819D01*
X127956071Y-139199819D02*
X127860833Y-139199819D01*
X127860833Y-139199819D02*
X127717976Y-139247438D01*
X127717976Y-139247438D02*
X127670357Y-139295057D01*
X126717976Y-140199819D02*
X127289404Y-140199819D01*
X127003690Y-140199819D02*
X127003690Y-139199819D01*
X127003690Y-139199819D02*
X127098928Y-139342676D01*
X127098928Y-139342676D02*
X127194166Y-139437914D01*
X127194166Y-139437914D02*
X127289404Y-139485533D01*
X125860833Y-139533152D02*
X125860833Y-140199819D01*
X126098928Y-139152200D02*
X126337023Y-139866485D01*
X126337023Y-139866485D02*
X125717976Y-139866485D01*
X128915319Y-118627142D02*
X128439128Y-118293809D01*
X128915319Y-118055714D02*
X127915319Y-118055714D01*
X127915319Y-118055714D02*
X127915319Y-118436666D01*
X127915319Y-118436666D02*
X127962938Y-118531904D01*
X127962938Y-118531904D02*
X128010557Y-118579523D01*
X128010557Y-118579523D02*
X128105795Y-118627142D01*
X128105795Y-118627142D02*
X128248652Y-118627142D01*
X128248652Y-118627142D02*
X128343890Y-118579523D01*
X128343890Y-118579523D02*
X128391509Y-118531904D01*
X128391509Y-118531904D02*
X128439128Y-118436666D01*
X128439128Y-118436666D02*
X128439128Y-118055714D01*
X128010557Y-119008095D02*
X127962938Y-119055714D01*
X127962938Y-119055714D02*
X127915319Y-119150952D01*
X127915319Y-119150952D02*
X127915319Y-119389047D01*
X127915319Y-119389047D02*
X127962938Y-119484285D01*
X127962938Y-119484285D02*
X128010557Y-119531904D01*
X128010557Y-119531904D02*
X128105795Y-119579523D01*
X128105795Y-119579523D02*
X128201033Y-119579523D01*
X128201033Y-119579523D02*
X128343890Y-119531904D01*
X128343890Y-119531904D02*
X128915319Y-118960476D01*
X128915319Y-118960476D02*
X128915319Y-119579523D01*
X127915319Y-120198571D02*
X127915319Y-120293809D01*
X127915319Y-120293809D02*
X127962938Y-120389047D01*
X127962938Y-120389047D02*
X128010557Y-120436666D01*
X128010557Y-120436666D02*
X128105795Y-120484285D01*
X128105795Y-120484285D02*
X128296271Y-120531904D01*
X128296271Y-120531904D02*
X128534366Y-120531904D01*
X128534366Y-120531904D02*
X128724842Y-120484285D01*
X128724842Y-120484285D02*
X128820080Y-120436666D01*
X128820080Y-120436666D02*
X128867700Y-120389047D01*
X128867700Y-120389047D02*
X128915319Y-120293809D01*
X128915319Y-120293809D02*
X128915319Y-120198571D01*
X128915319Y-120198571D02*
X128867700Y-120103333D01*
X128867700Y-120103333D02*
X128820080Y-120055714D01*
X128820080Y-120055714D02*
X128724842Y-120008095D01*
X128724842Y-120008095D02*
X128534366Y-119960476D01*
X128534366Y-119960476D02*
X128296271Y-119960476D01*
X128296271Y-119960476D02*
X128105795Y-120008095D01*
X128105795Y-120008095D02*
X128010557Y-120055714D01*
X128010557Y-120055714D02*
X127962938Y-120103333D01*
X127962938Y-120103333D02*
X127915319Y-120198571D01*
D11*
X128242762Y-95594318D02*
X128242762Y-94324318D01*
X126912285Y-95473365D02*
X126972761Y-95533842D01*
X126972761Y-95533842D02*
X127154190Y-95594318D01*
X127154190Y-95594318D02*
X127275142Y-95594318D01*
X127275142Y-95594318D02*
X127456571Y-95533842D01*
X127456571Y-95533842D02*
X127577523Y-95412889D01*
X127577523Y-95412889D02*
X127638000Y-95291937D01*
X127638000Y-95291937D02*
X127698476Y-95050032D01*
X127698476Y-95050032D02*
X127698476Y-94868603D01*
X127698476Y-94868603D02*
X127638000Y-94626699D01*
X127638000Y-94626699D02*
X127577523Y-94505746D01*
X127577523Y-94505746D02*
X127456571Y-94384794D01*
X127456571Y-94384794D02*
X127275142Y-94324318D01*
X127275142Y-94324318D02*
X127154190Y-94324318D01*
X127154190Y-94324318D02*
X126972761Y-94384794D01*
X126972761Y-94384794D02*
X126912285Y-94445270D01*
X125702761Y-95594318D02*
X126428476Y-95594318D01*
X126065619Y-95594318D02*
X126065619Y-94324318D01*
X126065619Y-94324318D02*
X126186571Y-94505746D01*
X126186571Y-94505746D02*
X126307523Y-94626699D01*
X126307523Y-94626699D02*
X126428476Y-94687175D01*
D10*
X128542580Y-89152142D02*
X128590200Y-89104523D01*
X128590200Y-89104523D02*
X128637819Y-88961666D01*
X128637819Y-88961666D02*
X128637819Y-88866428D01*
X128637819Y-88866428D02*
X128590200Y-88723571D01*
X128590200Y-88723571D02*
X128494961Y-88628333D01*
X128494961Y-88628333D02*
X128399723Y-88580714D01*
X128399723Y-88580714D02*
X128209247Y-88533095D01*
X128209247Y-88533095D02*
X128066390Y-88533095D01*
X128066390Y-88533095D02*
X127875914Y-88580714D01*
X127875914Y-88580714D02*
X127780676Y-88628333D01*
X127780676Y-88628333D02*
X127685438Y-88723571D01*
X127685438Y-88723571D02*
X127637819Y-88866428D01*
X127637819Y-88866428D02*
X127637819Y-88961666D01*
X127637819Y-88961666D02*
X127685438Y-89104523D01*
X127685438Y-89104523D02*
X127733057Y-89152142D01*
X128637819Y-90104523D02*
X128637819Y-89533095D01*
X128637819Y-89818809D02*
X127637819Y-89818809D01*
X127637819Y-89818809D02*
X127780676Y-89723571D01*
X127780676Y-89723571D02*
X127875914Y-89628333D01*
X127875914Y-89628333D02*
X127923533Y-89533095D01*
X128637819Y-91056904D02*
X128637819Y-90485476D01*
X128637819Y-90771190D02*
X127637819Y-90771190D01*
X127637819Y-90771190D02*
X127780676Y-90675952D01*
X127780676Y-90675952D02*
X127875914Y-90580714D01*
X127875914Y-90580714D02*
X127923533Y-90485476D01*
X126542580Y-89152142D02*
X126590200Y-89104523D01*
X126590200Y-89104523D02*
X126637819Y-88961666D01*
X126637819Y-88961666D02*
X126637819Y-88866428D01*
X126637819Y-88866428D02*
X126590200Y-88723571D01*
X126590200Y-88723571D02*
X126494961Y-88628333D01*
X126494961Y-88628333D02*
X126399723Y-88580714D01*
X126399723Y-88580714D02*
X126209247Y-88533095D01*
X126209247Y-88533095D02*
X126066390Y-88533095D01*
X126066390Y-88533095D02*
X125875914Y-88580714D01*
X125875914Y-88580714D02*
X125780676Y-88628333D01*
X125780676Y-88628333D02*
X125685438Y-88723571D01*
X125685438Y-88723571D02*
X125637819Y-88866428D01*
X125637819Y-88866428D02*
X125637819Y-88961666D01*
X125637819Y-88961666D02*
X125685438Y-89104523D01*
X125685438Y-89104523D02*
X125733057Y-89152142D01*
X126637819Y-90104523D02*
X126637819Y-89533095D01*
X126637819Y-89818809D02*
X125637819Y-89818809D01*
X125637819Y-89818809D02*
X125780676Y-89723571D01*
X125780676Y-89723571D02*
X125875914Y-89628333D01*
X125875914Y-89628333D02*
X125923533Y-89533095D01*
X125637819Y-90437857D02*
X125637819Y-91056904D01*
X125637819Y-91056904D02*
X126018771Y-90723571D01*
X126018771Y-90723571D02*
X126018771Y-90866428D01*
X126018771Y-90866428D02*
X126066390Y-90961666D01*
X126066390Y-90961666D02*
X126114009Y-91009285D01*
X126114009Y-91009285D02*
X126209247Y-91056904D01*
X126209247Y-91056904D02*
X126447342Y-91056904D01*
X126447342Y-91056904D02*
X126542580Y-91009285D01*
X126542580Y-91009285D02*
X126590200Y-90961666D01*
X126590200Y-90961666D02*
X126637819Y-90866428D01*
X126637819Y-90866428D02*
X126637819Y-90580714D01*
X126637819Y-90580714D02*
X126590200Y-90485476D01*
X126590200Y-90485476D02*
X126542580Y-90437857D01*
X133014904Y-77854819D02*
X133014904Y-78664342D01*
X133014904Y-78664342D02*
X132967285Y-78759580D01*
X132967285Y-78759580D02*
X132919666Y-78807200D01*
X132919666Y-78807200D02*
X132824428Y-78854819D01*
X132824428Y-78854819D02*
X132633952Y-78854819D01*
X132633952Y-78854819D02*
X132538714Y-78807200D01*
X132538714Y-78807200D02*
X132491095Y-78759580D01*
X132491095Y-78759580D02*
X132443476Y-78664342D01*
X132443476Y-78664342D02*
X132443476Y-77854819D01*
X131538714Y-78188152D02*
X131538714Y-78854819D01*
X131776809Y-77807200D02*
X132014904Y-78521485D01*
X132014904Y-78521485D02*
X131395857Y-78521485D01*
X138062580Y-91552142D02*
X138110200Y-91504523D01*
X138110200Y-91504523D02*
X138157819Y-91361666D01*
X138157819Y-91361666D02*
X138157819Y-91266428D01*
X138157819Y-91266428D02*
X138110200Y-91123571D01*
X138110200Y-91123571D02*
X138014961Y-91028333D01*
X138014961Y-91028333D02*
X137919723Y-90980714D01*
X137919723Y-90980714D02*
X137729247Y-90933095D01*
X137729247Y-90933095D02*
X137586390Y-90933095D01*
X137586390Y-90933095D02*
X137395914Y-90980714D01*
X137395914Y-90980714D02*
X137300676Y-91028333D01*
X137300676Y-91028333D02*
X137205438Y-91123571D01*
X137205438Y-91123571D02*
X137157819Y-91266428D01*
X137157819Y-91266428D02*
X137157819Y-91361666D01*
X137157819Y-91361666D02*
X137205438Y-91504523D01*
X137205438Y-91504523D02*
X137253057Y-91552142D01*
X137253057Y-91933095D02*
X137205438Y-91980714D01*
X137205438Y-91980714D02*
X137157819Y-92075952D01*
X137157819Y-92075952D02*
X137157819Y-92314047D01*
X137157819Y-92314047D02*
X137205438Y-92409285D01*
X137205438Y-92409285D02*
X137253057Y-92456904D01*
X137253057Y-92456904D02*
X137348295Y-92504523D01*
X137348295Y-92504523D02*
X137443533Y-92504523D01*
X137443533Y-92504523D02*
X137586390Y-92456904D01*
X137586390Y-92456904D02*
X138157819Y-91885476D01*
X138157819Y-91885476D02*
X138157819Y-92504523D01*
X137253057Y-92885476D02*
X137205438Y-92933095D01*
X137205438Y-92933095D02*
X137157819Y-93028333D01*
X137157819Y-93028333D02*
X137157819Y-93266428D01*
X137157819Y-93266428D02*
X137205438Y-93361666D01*
X137205438Y-93361666D02*
X137253057Y-93409285D01*
X137253057Y-93409285D02*
X137348295Y-93456904D01*
X137348295Y-93456904D02*
X137443533Y-93456904D01*
X137443533Y-93456904D02*
X137586390Y-93409285D01*
X137586390Y-93409285D02*
X138157819Y-92837857D01*
X138157819Y-92837857D02*
X138157819Y-93456904D01*
X136352819Y-72757142D02*
X135876628Y-72423809D01*
X136352819Y-72185714D02*
X135352819Y-72185714D01*
X135352819Y-72185714D02*
X135352819Y-72566666D01*
X135352819Y-72566666D02*
X135400438Y-72661904D01*
X135400438Y-72661904D02*
X135448057Y-72709523D01*
X135448057Y-72709523D02*
X135543295Y-72757142D01*
X135543295Y-72757142D02*
X135686152Y-72757142D01*
X135686152Y-72757142D02*
X135781390Y-72709523D01*
X135781390Y-72709523D02*
X135829009Y-72661904D01*
X135829009Y-72661904D02*
X135876628Y-72566666D01*
X135876628Y-72566666D02*
X135876628Y-72185714D01*
X135352819Y-73090476D02*
X135352819Y-73709523D01*
X135352819Y-73709523D02*
X135733771Y-73376190D01*
X135733771Y-73376190D02*
X135733771Y-73519047D01*
X135733771Y-73519047D02*
X135781390Y-73614285D01*
X135781390Y-73614285D02*
X135829009Y-73661904D01*
X135829009Y-73661904D02*
X135924247Y-73709523D01*
X135924247Y-73709523D02*
X136162342Y-73709523D01*
X136162342Y-73709523D02*
X136257580Y-73661904D01*
X136257580Y-73661904D02*
X136305200Y-73614285D01*
X136305200Y-73614285D02*
X136352819Y-73519047D01*
X136352819Y-73519047D02*
X136352819Y-73233333D01*
X136352819Y-73233333D02*
X136305200Y-73138095D01*
X136305200Y-73138095D02*
X136257580Y-73090476D01*
X136352819Y-74661904D02*
X136352819Y-74090476D01*
X136352819Y-74376190D02*
X135352819Y-74376190D01*
X135352819Y-74376190D02*
X135495676Y-74280952D01*
X135495676Y-74280952D02*
X135590914Y-74185714D01*
X135590914Y-74185714D02*
X135638533Y-74090476D01*
X128912819Y-83007142D02*
X128436628Y-82673809D01*
X128912819Y-82435714D02*
X127912819Y-82435714D01*
X127912819Y-82435714D02*
X127912819Y-82816666D01*
X127912819Y-82816666D02*
X127960438Y-82911904D01*
X127960438Y-82911904D02*
X128008057Y-82959523D01*
X128008057Y-82959523D02*
X128103295Y-83007142D01*
X128103295Y-83007142D02*
X128246152Y-83007142D01*
X128246152Y-83007142D02*
X128341390Y-82959523D01*
X128341390Y-82959523D02*
X128389009Y-82911904D01*
X128389009Y-82911904D02*
X128436628Y-82816666D01*
X128436628Y-82816666D02*
X128436628Y-82435714D01*
X128912819Y-83959523D02*
X128912819Y-83388095D01*
X128912819Y-83673809D02*
X127912819Y-83673809D01*
X127912819Y-83673809D02*
X128055676Y-83578571D01*
X128055676Y-83578571D02*
X128150914Y-83483333D01*
X128150914Y-83483333D02*
X128198533Y-83388095D01*
X127912819Y-84292857D02*
X127912819Y-84959523D01*
X127912819Y-84959523D02*
X128912819Y-84530952D01*
X132939904Y-83854819D02*
X132939904Y-84664342D01*
X132939904Y-84664342D02*
X132892285Y-84759580D01*
X132892285Y-84759580D02*
X132844666Y-84807200D01*
X132844666Y-84807200D02*
X132749428Y-84854819D01*
X132749428Y-84854819D02*
X132558952Y-84854819D01*
X132558952Y-84854819D02*
X132463714Y-84807200D01*
X132463714Y-84807200D02*
X132416095Y-84759580D01*
X132416095Y-84759580D02*
X132368476Y-84664342D01*
X132368476Y-84664342D02*
X132368476Y-83854819D01*
X131987523Y-83854819D02*
X131368476Y-83854819D01*
X131368476Y-83854819D02*
X131701809Y-84235771D01*
X131701809Y-84235771D02*
X131558952Y-84235771D01*
X131558952Y-84235771D02*
X131463714Y-84283390D01*
X131463714Y-84283390D02*
X131416095Y-84331009D01*
X131416095Y-84331009D02*
X131368476Y-84426247D01*
X131368476Y-84426247D02*
X131368476Y-84664342D01*
X131368476Y-84664342D02*
X131416095Y-84759580D01*
X131416095Y-84759580D02*
X131463714Y-84807200D01*
X131463714Y-84807200D02*
X131558952Y-84854819D01*
X131558952Y-84854819D02*
X131844666Y-84854819D01*
X131844666Y-84854819D02*
X131939904Y-84807200D01*
X131939904Y-84807200D02*
X131987523Y-84759580D01*
X130542580Y-89177142D02*
X130590200Y-89129523D01*
X130590200Y-89129523D02*
X130637819Y-88986666D01*
X130637819Y-88986666D02*
X130637819Y-88891428D01*
X130637819Y-88891428D02*
X130590200Y-88748571D01*
X130590200Y-88748571D02*
X130494961Y-88653333D01*
X130494961Y-88653333D02*
X130399723Y-88605714D01*
X130399723Y-88605714D02*
X130209247Y-88558095D01*
X130209247Y-88558095D02*
X130066390Y-88558095D01*
X130066390Y-88558095D02*
X129875914Y-88605714D01*
X129875914Y-88605714D02*
X129780676Y-88653333D01*
X129780676Y-88653333D02*
X129685438Y-88748571D01*
X129685438Y-88748571D02*
X129637819Y-88891428D01*
X129637819Y-88891428D02*
X129637819Y-88986666D01*
X129637819Y-88986666D02*
X129685438Y-89129523D01*
X129685438Y-89129523D02*
X129733057Y-89177142D01*
X129733057Y-89558095D02*
X129685438Y-89605714D01*
X129685438Y-89605714D02*
X129637819Y-89700952D01*
X129637819Y-89700952D02*
X129637819Y-89939047D01*
X129637819Y-89939047D02*
X129685438Y-90034285D01*
X129685438Y-90034285D02*
X129733057Y-90081904D01*
X129733057Y-90081904D02*
X129828295Y-90129523D01*
X129828295Y-90129523D02*
X129923533Y-90129523D01*
X129923533Y-90129523D02*
X130066390Y-90081904D01*
X130066390Y-90081904D02*
X130637819Y-89510476D01*
X130637819Y-89510476D02*
X130637819Y-90129523D01*
X129637819Y-90462857D02*
X129637819Y-91081904D01*
X129637819Y-91081904D02*
X130018771Y-90748571D01*
X130018771Y-90748571D02*
X130018771Y-90891428D01*
X130018771Y-90891428D02*
X130066390Y-90986666D01*
X130066390Y-90986666D02*
X130114009Y-91034285D01*
X130114009Y-91034285D02*
X130209247Y-91081904D01*
X130209247Y-91081904D02*
X130447342Y-91081904D01*
X130447342Y-91081904D02*
X130542580Y-91034285D01*
X130542580Y-91034285D02*
X130590200Y-90986666D01*
X130590200Y-90986666D02*
X130637819Y-90891428D01*
X130637819Y-90891428D02*
X130637819Y-90605714D01*
X130637819Y-90605714D02*
X130590200Y-90510476D01*
X130590200Y-90510476D02*
X130542580Y-90462857D01*
X138867857Y-67874819D02*
X139201190Y-67398628D01*
X139439285Y-67874819D02*
X139439285Y-66874819D01*
X139439285Y-66874819D02*
X139058333Y-66874819D01*
X139058333Y-66874819D02*
X138963095Y-66922438D01*
X138963095Y-66922438D02*
X138915476Y-66970057D01*
X138915476Y-66970057D02*
X138867857Y-67065295D01*
X138867857Y-67065295D02*
X138867857Y-67208152D01*
X138867857Y-67208152D02*
X138915476Y-67303390D01*
X138915476Y-67303390D02*
X138963095Y-67351009D01*
X138963095Y-67351009D02*
X139058333Y-67398628D01*
X139058333Y-67398628D02*
X139439285Y-67398628D01*
X137915476Y-67874819D02*
X138486904Y-67874819D01*
X138201190Y-67874819D02*
X138201190Y-66874819D01*
X138201190Y-66874819D02*
X138296428Y-67017676D01*
X138296428Y-67017676D02*
X138391666Y-67112914D01*
X138391666Y-67112914D02*
X138486904Y-67160533D01*
X137439285Y-67874819D02*
X137248809Y-67874819D01*
X137248809Y-67874819D02*
X137153571Y-67827200D01*
X137153571Y-67827200D02*
X137105952Y-67779580D01*
X137105952Y-67779580D02*
X137010714Y-67636723D01*
X137010714Y-67636723D02*
X136963095Y-67446247D01*
X136963095Y-67446247D02*
X136963095Y-67065295D01*
X136963095Y-67065295D02*
X137010714Y-66970057D01*
X137010714Y-66970057D02*
X137058333Y-66922438D01*
X137058333Y-66922438D02*
X137153571Y-66874819D01*
X137153571Y-66874819D02*
X137344047Y-66874819D01*
X137344047Y-66874819D02*
X137439285Y-66922438D01*
X137439285Y-66922438D02*
X137486904Y-66970057D01*
X137486904Y-66970057D02*
X137534523Y-67065295D01*
X137534523Y-67065295D02*
X137534523Y-67303390D01*
X137534523Y-67303390D02*
X137486904Y-67398628D01*
X137486904Y-67398628D02*
X137439285Y-67446247D01*
X137439285Y-67446247D02*
X137344047Y-67493866D01*
X137344047Y-67493866D02*
X137153571Y-67493866D01*
X137153571Y-67493866D02*
X137058333Y-67446247D01*
X137058333Y-67446247D02*
X137010714Y-67398628D01*
X137010714Y-67398628D02*
X136963095Y-67303390D01*
X133670857Y-99159580D02*
X133718476Y-99207200D01*
X133718476Y-99207200D02*
X133861333Y-99254819D01*
X133861333Y-99254819D02*
X133956571Y-99254819D01*
X133956571Y-99254819D02*
X134099428Y-99207200D01*
X134099428Y-99207200D02*
X134194666Y-99111961D01*
X134194666Y-99111961D02*
X134242285Y-99016723D01*
X134242285Y-99016723D02*
X134289904Y-98826247D01*
X134289904Y-98826247D02*
X134289904Y-98683390D01*
X134289904Y-98683390D02*
X134242285Y-98492914D01*
X134242285Y-98492914D02*
X134194666Y-98397676D01*
X134194666Y-98397676D02*
X134099428Y-98302438D01*
X134099428Y-98302438D02*
X133956571Y-98254819D01*
X133956571Y-98254819D02*
X133861333Y-98254819D01*
X133861333Y-98254819D02*
X133718476Y-98302438D01*
X133718476Y-98302438D02*
X133670857Y-98350057D01*
X132718476Y-99254819D02*
X133289904Y-99254819D01*
X133004190Y-99254819D02*
X133004190Y-98254819D01*
X133004190Y-98254819D02*
X133099428Y-98397676D01*
X133099428Y-98397676D02*
X133194666Y-98492914D01*
X133194666Y-98492914D02*
X133289904Y-98540533D01*
X132385142Y-98254819D02*
X131718476Y-98254819D01*
X131718476Y-98254819D02*
X132147047Y-99254819D01*
X134992857Y-105604580D02*
X135040476Y-105652200D01*
X135040476Y-105652200D02*
X135183333Y-105699819D01*
X135183333Y-105699819D02*
X135278571Y-105699819D01*
X135278571Y-105699819D02*
X135421428Y-105652200D01*
X135421428Y-105652200D02*
X135516666Y-105556961D01*
X135516666Y-105556961D02*
X135564285Y-105461723D01*
X135564285Y-105461723D02*
X135611904Y-105271247D01*
X135611904Y-105271247D02*
X135611904Y-105128390D01*
X135611904Y-105128390D02*
X135564285Y-104937914D01*
X135564285Y-104937914D02*
X135516666Y-104842676D01*
X135516666Y-104842676D02*
X135421428Y-104747438D01*
X135421428Y-104747438D02*
X135278571Y-104699819D01*
X135278571Y-104699819D02*
X135183333Y-104699819D01*
X135183333Y-104699819D02*
X135040476Y-104747438D01*
X135040476Y-104747438D02*
X134992857Y-104795057D01*
X134040476Y-105699819D02*
X134611904Y-105699819D01*
X134326190Y-105699819D02*
X134326190Y-104699819D01*
X134326190Y-104699819D02*
X134421428Y-104842676D01*
X134421428Y-104842676D02*
X134516666Y-104937914D01*
X134516666Y-104937914D02*
X134611904Y-104985533D01*
X133659523Y-104795057D02*
X133611904Y-104747438D01*
X133611904Y-104747438D02*
X133516666Y-104699819D01*
X133516666Y-104699819D02*
X133278571Y-104699819D01*
X133278571Y-104699819D02*
X133183333Y-104747438D01*
X133183333Y-104747438D02*
X133135714Y-104795057D01*
X133135714Y-104795057D02*
X133088095Y-104890295D01*
X133088095Y-104890295D02*
X133088095Y-104985533D01*
X133088095Y-104985533D02*
X133135714Y-105128390D01*
X133135714Y-105128390D02*
X133707142Y-105699819D01*
X133707142Y-105699819D02*
X133088095Y-105699819D01*
X128962819Y-71632142D02*
X128486628Y-71298809D01*
X128962819Y-71060714D02*
X127962819Y-71060714D01*
X127962819Y-71060714D02*
X127962819Y-71441666D01*
X127962819Y-71441666D02*
X128010438Y-71536904D01*
X128010438Y-71536904D02*
X128058057Y-71584523D01*
X128058057Y-71584523D02*
X128153295Y-71632142D01*
X128153295Y-71632142D02*
X128296152Y-71632142D01*
X128296152Y-71632142D02*
X128391390Y-71584523D01*
X128391390Y-71584523D02*
X128439009Y-71536904D01*
X128439009Y-71536904D02*
X128486628Y-71441666D01*
X128486628Y-71441666D02*
X128486628Y-71060714D01*
X128962819Y-72584523D02*
X128962819Y-72013095D01*
X128962819Y-72298809D02*
X127962819Y-72298809D01*
X127962819Y-72298809D02*
X128105676Y-72203571D01*
X128105676Y-72203571D02*
X128200914Y-72108333D01*
X128200914Y-72108333D02*
X128248533Y-72013095D01*
X127962819Y-73441666D02*
X127962819Y-73251190D01*
X127962819Y-73251190D02*
X128010438Y-73155952D01*
X128010438Y-73155952D02*
X128058057Y-73108333D01*
X128058057Y-73108333D02*
X128200914Y-73013095D01*
X128200914Y-73013095D02*
X128391390Y-72965476D01*
X128391390Y-72965476D02*
X128772342Y-72965476D01*
X128772342Y-72965476D02*
X128867580Y-73013095D01*
X128867580Y-73013095D02*
X128915200Y-73060714D01*
X128915200Y-73060714D02*
X128962819Y-73155952D01*
X128962819Y-73155952D02*
X128962819Y-73346428D01*
X128962819Y-73346428D02*
X128915200Y-73441666D01*
X128915200Y-73441666D02*
X128867580Y-73489285D01*
X128867580Y-73489285D02*
X128772342Y-73536904D01*
X128772342Y-73536904D02*
X128534247Y-73536904D01*
X128534247Y-73536904D02*
X128439009Y-73489285D01*
X128439009Y-73489285D02*
X128391390Y-73441666D01*
X128391390Y-73441666D02*
X128343771Y-73346428D01*
X128343771Y-73346428D02*
X128343771Y-73155952D01*
X128343771Y-73155952D02*
X128391390Y-73060714D01*
X128391390Y-73060714D02*
X128439009Y-73013095D01*
X128439009Y-73013095D02*
X128534247Y-72965476D01*
X133014904Y-72429819D02*
X133014904Y-73239342D01*
X133014904Y-73239342D02*
X132967285Y-73334580D01*
X132967285Y-73334580D02*
X132919666Y-73382200D01*
X132919666Y-73382200D02*
X132824428Y-73429819D01*
X132824428Y-73429819D02*
X132633952Y-73429819D01*
X132633952Y-73429819D02*
X132538714Y-73382200D01*
X132538714Y-73382200D02*
X132491095Y-73334580D01*
X132491095Y-73334580D02*
X132443476Y-73239342D01*
X132443476Y-73239342D02*
X132443476Y-72429819D01*
X132014904Y-72525057D02*
X131967285Y-72477438D01*
X131967285Y-72477438D02*
X131872047Y-72429819D01*
X131872047Y-72429819D02*
X131633952Y-72429819D01*
X131633952Y-72429819D02*
X131538714Y-72477438D01*
X131538714Y-72477438D02*
X131491095Y-72525057D01*
X131491095Y-72525057D02*
X131443476Y-72620295D01*
X131443476Y-72620295D02*
X131443476Y-72715533D01*
X131443476Y-72715533D02*
X131491095Y-72858390D01*
X131491095Y-72858390D02*
X132062523Y-73429819D01*
X132062523Y-73429819D02*
X131443476Y-73429819D01*
X127642857Y-98659580D02*
X127690476Y-98707200D01*
X127690476Y-98707200D02*
X127833333Y-98754819D01*
X127833333Y-98754819D02*
X127928571Y-98754819D01*
X127928571Y-98754819D02*
X128071428Y-98707200D01*
X128071428Y-98707200D02*
X128166666Y-98611961D01*
X128166666Y-98611961D02*
X128214285Y-98516723D01*
X128214285Y-98516723D02*
X128261904Y-98326247D01*
X128261904Y-98326247D02*
X128261904Y-98183390D01*
X128261904Y-98183390D02*
X128214285Y-97992914D01*
X128214285Y-97992914D02*
X128166666Y-97897676D01*
X128166666Y-97897676D02*
X128071428Y-97802438D01*
X128071428Y-97802438D02*
X127928571Y-97754819D01*
X127928571Y-97754819D02*
X127833333Y-97754819D01*
X127833333Y-97754819D02*
X127690476Y-97802438D01*
X127690476Y-97802438D02*
X127642857Y-97850057D01*
X126690476Y-98754819D02*
X127261904Y-98754819D01*
X126976190Y-98754819D02*
X126976190Y-97754819D01*
X126976190Y-97754819D02*
X127071428Y-97897676D01*
X127071428Y-97897676D02*
X127166666Y-97992914D01*
X127166666Y-97992914D02*
X127261904Y-98040533D01*
X125833333Y-98088152D02*
X125833333Y-98754819D01*
X126071428Y-97707200D02*
X126309523Y-98421485D01*
X126309523Y-98421485D02*
X125690476Y-98421485D01*
X136377819Y-78607142D02*
X135901628Y-78273809D01*
X136377819Y-78035714D02*
X135377819Y-78035714D01*
X135377819Y-78035714D02*
X135377819Y-78416666D01*
X135377819Y-78416666D02*
X135425438Y-78511904D01*
X135425438Y-78511904D02*
X135473057Y-78559523D01*
X135473057Y-78559523D02*
X135568295Y-78607142D01*
X135568295Y-78607142D02*
X135711152Y-78607142D01*
X135711152Y-78607142D02*
X135806390Y-78559523D01*
X135806390Y-78559523D02*
X135854009Y-78511904D01*
X135854009Y-78511904D02*
X135901628Y-78416666D01*
X135901628Y-78416666D02*
X135901628Y-78035714D01*
X136377819Y-79559523D02*
X136377819Y-78988095D01*
X136377819Y-79273809D02*
X135377819Y-79273809D01*
X135377819Y-79273809D02*
X135520676Y-79178571D01*
X135520676Y-79178571D02*
X135615914Y-79083333D01*
X135615914Y-79083333D02*
X135663533Y-78988095D01*
X135806390Y-80130952D02*
X135758771Y-80035714D01*
X135758771Y-80035714D02*
X135711152Y-79988095D01*
X135711152Y-79988095D02*
X135615914Y-79940476D01*
X135615914Y-79940476D02*
X135568295Y-79940476D01*
X135568295Y-79940476D02*
X135473057Y-79988095D01*
X135473057Y-79988095D02*
X135425438Y-80035714D01*
X135425438Y-80035714D02*
X135377819Y-80130952D01*
X135377819Y-80130952D02*
X135377819Y-80321428D01*
X135377819Y-80321428D02*
X135425438Y-80416666D01*
X135425438Y-80416666D02*
X135473057Y-80464285D01*
X135473057Y-80464285D02*
X135568295Y-80511904D01*
X135568295Y-80511904D02*
X135615914Y-80511904D01*
X135615914Y-80511904D02*
X135711152Y-80464285D01*
X135711152Y-80464285D02*
X135758771Y-80416666D01*
X135758771Y-80416666D02*
X135806390Y-80321428D01*
X135806390Y-80321428D02*
X135806390Y-80130952D01*
X135806390Y-80130952D02*
X135854009Y-80035714D01*
X135854009Y-80035714D02*
X135901628Y-79988095D01*
X135901628Y-79988095D02*
X135996866Y-79940476D01*
X135996866Y-79940476D02*
X136187342Y-79940476D01*
X136187342Y-79940476D02*
X136282580Y-79988095D01*
X136282580Y-79988095D02*
X136330200Y-80035714D01*
X136330200Y-80035714D02*
X136377819Y-80130952D01*
X136377819Y-80130952D02*
X136377819Y-80321428D01*
X136377819Y-80321428D02*
X136330200Y-80416666D01*
X136330200Y-80416666D02*
X136282580Y-80464285D01*
X136282580Y-80464285D02*
X136187342Y-80511904D01*
X136187342Y-80511904D02*
X135996866Y-80511904D01*
X135996866Y-80511904D02*
X135901628Y-80464285D01*
X135901628Y-80464285D02*
X135854009Y-80416666D01*
X135854009Y-80416666D02*
X135806390Y-80321428D01*
X128887819Y-77182142D02*
X128411628Y-76848809D01*
X128887819Y-76610714D02*
X127887819Y-76610714D01*
X127887819Y-76610714D02*
X127887819Y-76991666D01*
X127887819Y-76991666D02*
X127935438Y-77086904D01*
X127935438Y-77086904D02*
X127983057Y-77134523D01*
X127983057Y-77134523D02*
X128078295Y-77182142D01*
X128078295Y-77182142D02*
X128221152Y-77182142D01*
X128221152Y-77182142D02*
X128316390Y-77134523D01*
X128316390Y-77134523D02*
X128364009Y-77086904D01*
X128364009Y-77086904D02*
X128411628Y-76991666D01*
X128411628Y-76991666D02*
X128411628Y-76610714D01*
X127983057Y-77563095D02*
X127935438Y-77610714D01*
X127935438Y-77610714D02*
X127887819Y-77705952D01*
X127887819Y-77705952D02*
X127887819Y-77944047D01*
X127887819Y-77944047D02*
X127935438Y-78039285D01*
X127935438Y-78039285D02*
X127983057Y-78086904D01*
X127983057Y-78086904D02*
X128078295Y-78134523D01*
X128078295Y-78134523D02*
X128173533Y-78134523D01*
X128173533Y-78134523D02*
X128316390Y-78086904D01*
X128316390Y-78086904D02*
X128887819Y-77515476D01*
X128887819Y-77515476D02*
X128887819Y-78134523D01*
X127887819Y-78753571D02*
X127887819Y-78848809D01*
X127887819Y-78848809D02*
X127935438Y-78944047D01*
X127935438Y-78944047D02*
X127983057Y-78991666D01*
X127983057Y-78991666D02*
X128078295Y-79039285D01*
X128078295Y-79039285D02*
X128268771Y-79086904D01*
X128268771Y-79086904D02*
X128506866Y-79086904D01*
X128506866Y-79086904D02*
X128697342Y-79039285D01*
X128697342Y-79039285D02*
X128792580Y-78991666D01*
X128792580Y-78991666D02*
X128840200Y-78944047D01*
X128840200Y-78944047D02*
X128887819Y-78848809D01*
X128887819Y-78848809D02*
X128887819Y-78753571D01*
X128887819Y-78753571D02*
X128840200Y-78658333D01*
X128840200Y-78658333D02*
X128792580Y-78610714D01*
X128792580Y-78610714D02*
X128697342Y-78563095D01*
X128697342Y-78563095D02*
X128506866Y-78515476D01*
X128506866Y-78515476D02*
X128268771Y-78515476D01*
X128268771Y-78515476D02*
X128078295Y-78563095D01*
X128078295Y-78563095D02*
X127983057Y-78610714D01*
X127983057Y-78610714D02*
X127935438Y-78658333D01*
X127935438Y-78658333D02*
X127887819Y-78753571D01*
D12*
%TO.C,U2*%
X132280500Y-109660000D02*
X130005500Y-109660000D01*
X132280500Y-109660000D02*
X134555500Y-109660000D01*
X132280500Y-113580000D02*
X128230500Y-113580000D01*
X132280500Y-113580000D02*
X134555500Y-113580000D01*
%TO.C,R16*%
X126583000Y-113957258D02*
X126583000Y-113482742D01*
X127628000Y-113957258D02*
X127628000Y-113482742D01*
%TO.C,C12*%
X130752500Y-144675000D02*
X131377500Y-144675000D01*
X131065000Y-144987500D02*
X131065000Y-144362500D01*
X131617500Y-141294437D02*
X131617500Y-141930000D01*
X131617500Y-141294437D02*
X132681937Y-140230000D01*
X131617500Y-144685563D02*
X131617500Y-144050000D01*
X131617500Y-144685563D02*
X132681937Y-145750000D01*
X132681937Y-140230000D02*
X137137500Y-140230000D01*
X132681937Y-145750000D02*
X137137500Y-145750000D01*
X137137500Y-140230000D02*
X137137500Y-141930000D01*
X137137500Y-145750000D02*
X137137500Y-144050000D01*
%TO.C,C17*%
X132914920Y-138305000D02*
X133196080Y-138305000D01*
X132914920Y-139325000D02*
X133196080Y-139325000D01*
%TO.C,R19*%
X138489758Y-110817500D02*
X138015242Y-110817500D01*
X138489758Y-109772500D02*
X138015242Y-109772500D01*
%TO.C,C23*%
X128270500Y-131405580D02*
X128270500Y-131124420D01*
X129290500Y-131405580D02*
X129290500Y-131124420D01*
%TO.C,R17*%
X126533000Y-125332258D02*
X126533000Y-124857742D01*
X127578000Y-125332258D02*
X127578000Y-124857742D01*
%TO.C,C22*%
X136090500Y-136640000D02*
X136090500Y-136140000D01*
X136340500Y-136390000D02*
X135840500Y-136390000D01*
X133334937Y-135900000D02*
X133470500Y-135900000D01*
X133334937Y-135900000D02*
X132270500Y-134835563D01*
X135726063Y-135900000D02*
X135590500Y-135900000D01*
X135726063Y-135900000D02*
X136790500Y-134835563D01*
X132270500Y-134835563D02*
X132270500Y-131380000D01*
X136790500Y-134835563D02*
X136790500Y-131380000D01*
X132270500Y-131380000D02*
X133470500Y-131380000D01*
X136790500Y-131380000D02*
X135590500Y-131380000D01*
%TO.C,U4*%
X132280500Y-115085000D02*
X130005500Y-115085000D01*
X132280500Y-115085000D02*
X134555500Y-115085000D01*
X132280500Y-119005000D02*
X128230500Y-119005000D01*
X132280500Y-119005000D02*
X134555500Y-119005000D01*
%TO.C,C11*%
X126270500Y-131380580D02*
X126270500Y-131099420D01*
X127290500Y-131380580D02*
X127290500Y-131099420D01*
%TO.C,U3*%
X132205500Y-121085000D02*
X129930500Y-121085000D01*
X132205500Y-121085000D02*
X134480500Y-121085000D01*
X132205500Y-125005000D02*
X128155500Y-125005000D01*
X132205500Y-125005000D02*
X134480500Y-125005000D01*
%TO.C,R31*%
X137878000Y-114607742D02*
X137878000Y-115082258D01*
X136833000Y-114607742D02*
X136833000Y-115082258D01*
%TO.C,C13*%
X124270500Y-131380580D02*
X124270500Y-131099420D01*
X125290500Y-131380580D02*
X125290500Y-131099420D01*
D13*
%TO.C,IC1*%
X131055500Y-133365000D02*
X129205500Y-133365000D01*
X128780500Y-139715000D02*
X128780500Y-133215000D01*
X128780500Y-133215000D02*
X125280500Y-133215000D01*
X125280500Y-139715000D02*
X128780500Y-139715000D01*
X125280500Y-133215000D02*
X125280500Y-139715000D01*
D12*
%TO.C,R18*%
X137903000Y-120457742D02*
X137903000Y-120932258D01*
X136858000Y-120457742D02*
X136858000Y-120932258D01*
%TO.C,C14*%
X130027500Y-141385000D02*
X129527500Y-141385000D01*
X129777500Y-141135000D02*
X129777500Y-141635000D01*
X129287500Y-144140563D02*
X129287500Y-144005000D01*
X129287500Y-144140563D02*
X128223063Y-145205000D01*
X129287500Y-141749437D02*
X129287500Y-141885000D01*
X129287500Y-141749437D02*
X128223063Y-140685000D01*
X128223063Y-145205000D02*
X124767500Y-145205000D01*
X128223063Y-140685000D02*
X124767500Y-140685000D01*
X124767500Y-145205000D02*
X124767500Y-144005000D01*
X124767500Y-140685000D02*
X124767500Y-141885000D01*
%TO.C,R20*%
X126508000Y-119507258D02*
X126508000Y-119032742D01*
X127553000Y-119507258D02*
X127553000Y-119032742D01*
D13*
%TO.C,IC1*%
X128753000Y-91770000D02*
X125253000Y-91770000D01*
X125253000Y-91770000D02*
X125253000Y-98270000D01*
X125253000Y-98270000D02*
X128753000Y-98270000D01*
X128753000Y-98270000D02*
X128753000Y-91770000D01*
X131028000Y-91920000D02*
X129178000Y-91920000D01*
D12*
%TO.C,C11*%
X126243000Y-89935580D02*
X126243000Y-89654420D01*
X127263000Y-89935580D02*
X127263000Y-89654420D01*
%TO.C,C13*%
X124243000Y-89935580D02*
X124243000Y-89654420D01*
X125263000Y-89935580D02*
X125263000Y-89654420D01*
%TO.C,U4*%
X132253000Y-73640000D02*
X129978000Y-73640000D01*
X132253000Y-73640000D02*
X134528000Y-73640000D01*
X132253000Y-77560000D02*
X128203000Y-77560000D01*
X132253000Y-77560000D02*
X134528000Y-77560000D01*
%TO.C,C22*%
X136063000Y-95195000D02*
X136063000Y-94695000D01*
X136313000Y-94945000D02*
X135813000Y-94945000D01*
X133307437Y-94455000D02*
X133443000Y-94455000D01*
X133307437Y-94455000D02*
X132243000Y-93390563D01*
X135698563Y-94455000D02*
X135563000Y-94455000D01*
X135698563Y-94455000D02*
X136763000Y-93390563D01*
X132243000Y-93390563D02*
X132243000Y-89935000D01*
X136763000Y-93390563D02*
X136763000Y-89935000D01*
X132243000Y-89935000D02*
X133443000Y-89935000D01*
X136763000Y-89935000D02*
X135563000Y-89935000D01*
%TO.C,R31*%
X137850500Y-73162742D02*
X137850500Y-73637258D01*
X136805500Y-73162742D02*
X136805500Y-73637258D01*
%TO.C,R17*%
X126505500Y-83887258D02*
X126505500Y-83412742D01*
X127550500Y-83887258D02*
X127550500Y-83412742D01*
%TO.C,U3*%
X132178000Y-79640000D02*
X129903000Y-79640000D01*
X132178000Y-79640000D02*
X134453000Y-79640000D01*
X132178000Y-83560000D02*
X128128000Y-83560000D01*
X132178000Y-83560000D02*
X134453000Y-83560000D01*
%TO.C,C23*%
X128243000Y-89960580D02*
X128243000Y-89679420D01*
X129263000Y-89960580D02*
X129263000Y-89679420D01*
%TO.C,R19*%
X138462258Y-69372500D02*
X137987742Y-69372500D01*
X138462258Y-68327500D02*
X137987742Y-68327500D01*
%TO.C,C17*%
X132887420Y-96860000D02*
X133168580Y-96860000D01*
X132887420Y-97880000D02*
X133168580Y-97880000D01*
%TO.C,C12*%
X130725000Y-103230000D02*
X131350000Y-103230000D01*
X131037500Y-103542500D02*
X131037500Y-102917500D01*
X131590000Y-99849437D02*
X131590000Y-100485000D01*
X131590000Y-99849437D02*
X132654437Y-98785000D01*
X131590000Y-103240563D02*
X131590000Y-102605000D01*
X131590000Y-103240563D02*
X132654437Y-104305000D01*
X132654437Y-98785000D02*
X137110000Y-98785000D01*
X132654437Y-104305000D02*
X137110000Y-104305000D01*
X137110000Y-98785000D02*
X137110000Y-100485000D01*
X137110000Y-104305000D02*
X137110000Y-102605000D01*
%TO.C,R16*%
X126555500Y-72512258D02*
X126555500Y-72037742D01*
X127600500Y-72512258D02*
X127600500Y-72037742D01*
%TO.C,U2*%
X132253000Y-68215000D02*
X129978000Y-68215000D01*
X132253000Y-68215000D02*
X134528000Y-68215000D01*
X132253000Y-72135000D02*
X128203000Y-72135000D01*
X132253000Y-72135000D02*
X134528000Y-72135000D01*
%TO.C,C14*%
X130000000Y-99940000D02*
X129500000Y-99940000D01*
X129750000Y-99690000D02*
X129750000Y-100190000D01*
X129260000Y-102695563D02*
X129260000Y-102560000D01*
X129260000Y-102695563D02*
X128195563Y-103760000D01*
X129260000Y-100304437D02*
X129260000Y-100440000D01*
X129260000Y-100304437D02*
X128195563Y-99240000D01*
X128195563Y-103760000D02*
X124740000Y-103760000D01*
X128195563Y-99240000D02*
X124740000Y-99240000D01*
X124740000Y-103760000D02*
X124740000Y-102560000D01*
X124740000Y-99240000D02*
X124740000Y-100440000D01*
%TO.C,R18*%
X137875500Y-79012742D02*
X137875500Y-79487258D01*
X136830500Y-79012742D02*
X136830500Y-79487258D01*
%TO.C,R20*%
X126480500Y-78062258D02*
X126480500Y-77587742D01*
X127525500Y-78062258D02*
X127525500Y-77587742D01*
%TD*%
%LPC*%
D14*
%TO.C,U2*%
X129030500Y-112890000D03*
X129030500Y-110350000D03*
X135530500Y-110350000D03*
X135530500Y-112890000D03*
%TD*%
D15*
%TO.C,R16*%
X127105500Y-114545000D03*
X127105500Y-112895000D03*
%TD*%
D16*
%TO.C,C12*%
X132177500Y-142990000D03*
X136577500Y-142990000D03*
%TD*%
D17*
%TO.C,C17*%
X132280500Y-138815000D03*
X133830500Y-138815000D03*
%TD*%
D18*
%TO.C,R19*%
X139077500Y-110295000D03*
X137427500Y-110295000D03*
%TD*%
D19*
%TO.C,C23*%
X128780500Y-132040000D03*
X128780500Y-130490000D03*
%TD*%
D15*
%TO.C,R17*%
X127055500Y-125920000D03*
X127055500Y-124270000D03*
%TD*%
D20*
%TO.C,C22*%
X134530500Y-135440000D03*
X134530500Y-131840000D03*
%TD*%
D14*
%TO.C,U4*%
X129030500Y-118315000D03*
X129030500Y-115775000D03*
X135530500Y-115775000D03*
X135530500Y-118315000D03*
%TD*%
D19*
%TO.C,C11*%
X126780500Y-132015000D03*
X126780500Y-130465000D03*
%TD*%
D21*
%TO.C,J5*%
X109727500Y-111770000D03*
D22*
X112267500Y-111770000D03*
X114807500Y-111770000D03*
X117347500Y-111770000D03*
X119887500Y-111770000D03*
X122427500Y-111770000D03*
X124967500Y-111770000D03*
%TD*%
D14*
%TO.C,U3*%
X128955500Y-124315000D03*
X128955500Y-121775000D03*
X135455500Y-121775000D03*
X135455500Y-124315000D03*
%TD*%
D23*
%TO.C,R31*%
X137355500Y-114020000D03*
X137355500Y-115670000D03*
%TD*%
D19*
%TO.C,C13*%
X124780500Y-132015000D03*
X124780500Y-130465000D03*
%TD*%
D24*
%TO.C,J3*%
X141162500Y-133125000D03*
D25*
X141162500Y-130385000D03*
X141162500Y-127645000D03*
X141162500Y-124905000D03*
X141162500Y-122165000D03*
X143702500Y-131755000D03*
X143702500Y-129015000D03*
X143702500Y-126275000D03*
X143702500Y-123535000D03*
D26*
X142432500Y-140140000D03*
X142432500Y-115150000D03*
%TD*%
D21*
%TO.C,J4*%
X109387500Y-145785000D03*
D22*
X109387500Y-143245000D03*
X111927500Y-145785000D03*
X111927500Y-143245000D03*
X114467500Y-145785000D03*
X114467500Y-143245000D03*
X117007500Y-145785000D03*
X117007500Y-143245000D03*
X119547500Y-145785000D03*
X119547500Y-143245000D03*
X122087500Y-145785000D03*
X122087500Y-143245000D03*
%TD*%
D27*
%TO.C,J2*%
X97717500Y-137430000D03*
D28*
X97717500Y-134660000D03*
X97717500Y-131890000D03*
X97717500Y-129120000D03*
X97717500Y-126350000D03*
X97717500Y-123580000D03*
X97717500Y-120810000D03*
X97717500Y-118040000D03*
X94877500Y-136045000D03*
X94877500Y-133275000D03*
X94877500Y-130505000D03*
X94877500Y-127735000D03*
X94877500Y-124965000D03*
X94877500Y-122195000D03*
X94877500Y-119425000D03*
D29*
X96297500Y-144395000D03*
X96297500Y-111075000D03*
%TD*%
D30*
%TO.C,IC1*%
X130130500Y-134165000D03*
X130130500Y-136465000D03*
X130130500Y-138765000D03*
D31*
X123930500Y-136465000D03*
%TD*%
D23*
%TO.C,R18*%
X137380500Y-119870000D03*
X137380500Y-121520000D03*
%TD*%
D32*
%TO.C,C14*%
X128827500Y-142945000D03*
X125227500Y-142945000D03*
%TD*%
D15*
%TO.C,R20*%
X127030500Y-120095000D03*
X127030500Y-118445000D03*
%TD*%
D30*
%TO.C,IC1*%
X130103000Y-92720000D03*
X130103000Y-95020000D03*
X130103000Y-97320000D03*
D31*
X123903000Y-95020000D03*
%TD*%
D27*
%TO.C,J2*%
X97690000Y-95985000D03*
D28*
X97690000Y-93215000D03*
X97690000Y-90445000D03*
X97690000Y-87675000D03*
X97690000Y-84905000D03*
X97690000Y-82135000D03*
X97690000Y-79365000D03*
X97690000Y-76595000D03*
X94850000Y-94600000D03*
X94850000Y-91830000D03*
X94850000Y-89060000D03*
X94850000Y-86290000D03*
X94850000Y-83520000D03*
X94850000Y-80750000D03*
X94850000Y-77980000D03*
D29*
X96270000Y-102950000D03*
X96270000Y-69630000D03*
%TD*%
D21*
%TO.C,J4*%
X109360000Y-104340000D03*
D22*
X109360000Y-101800000D03*
X111900000Y-104340000D03*
X111900000Y-101800000D03*
X114440000Y-104340000D03*
X114440000Y-101800000D03*
X116980000Y-104340000D03*
X116980000Y-101800000D03*
X119520000Y-104340000D03*
X119520000Y-101800000D03*
X122060000Y-104340000D03*
X122060000Y-101800000D03*
%TD*%
D24*
%TO.C,J3*%
X141135000Y-91680000D03*
D25*
X141135000Y-88940000D03*
X141135000Y-86200000D03*
X141135000Y-83460000D03*
X141135000Y-80720000D03*
X143675000Y-90310000D03*
X143675000Y-87570000D03*
X143675000Y-84830000D03*
X143675000Y-82090000D03*
D26*
X142405000Y-98695000D03*
X142405000Y-73705000D03*
%TD*%
D21*
%TO.C,J5*%
X109700000Y-70325000D03*
D22*
X112240000Y-70325000D03*
X114780000Y-70325000D03*
X117320000Y-70325000D03*
X119860000Y-70325000D03*
X122400000Y-70325000D03*
X124940000Y-70325000D03*
%TD*%
D19*
%TO.C,C11*%
X126753000Y-90570000D03*
X126753000Y-89020000D03*
%TD*%
%TO.C,C13*%
X124753000Y-90570000D03*
X124753000Y-89020000D03*
%TD*%
D14*
%TO.C,U4*%
X129003000Y-76870000D03*
X129003000Y-74330000D03*
X135503000Y-74330000D03*
X135503000Y-76870000D03*
%TD*%
D20*
%TO.C,C22*%
X134503000Y-93995000D03*
X134503000Y-90395000D03*
%TD*%
D23*
%TO.C,R31*%
X137328000Y-72575000D03*
X137328000Y-74225000D03*
%TD*%
D15*
%TO.C,R17*%
X127028000Y-84475000D03*
X127028000Y-82825000D03*
%TD*%
D14*
%TO.C,U3*%
X128928000Y-82870000D03*
X128928000Y-80330000D03*
X135428000Y-80330000D03*
X135428000Y-82870000D03*
%TD*%
D19*
%TO.C,C23*%
X128753000Y-90595000D03*
X128753000Y-89045000D03*
%TD*%
D18*
%TO.C,R19*%
X139050000Y-68850000D03*
X137400000Y-68850000D03*
%TD*%
D17*
%TO.C,C17*%
X132253000Y-97370000D03*
X133803000Y-97370000D03*
%TD*%
D16*
%TO.C,C12*%
X132150000Y-101545000D03*
X136550000Y-101545000D03*
%TD*%
D15*
%TO.C,R16*%
X127078000Y-73100000D03*
X127078000Y-71450000D03*
%TD*%
D14*
%TO.C,U2*%
X129003000Y-71445000D03*
X129003000Y-68905000D03*
X135503000Y-68905000D03*
X135503000Y-71445000D03*
%TD*%
D32*
%TO.C,C14*%
X128800000Y-101500000D03*
X125200000Y-101500000D03*
%TD*%
D23*
%TO.C,R18*%
X137353000Y-78425000D03*
X137353000Y-80075000D03*
%TD*%
D15*
%TO.C,R20*%
X127003000Y-78650000D03*
X127003000Y-77000000D03*
%TD*%
%LPD*%
M02*
