M48
; DRILL file {KiCad 7.0.7} date Sun Sep  1 12:42:06 2024
; FORMAT={-:-/ absolute / metric / decimal}
; #@! TF.CreationDate,2024-09-01T12:42:06+02:00
; #@! TF.GenerationSoftware,Kicad,Pcbnew,7.0.7
; #@! TF.FileFunction,Plated,1,2,PTH
FMAT,2
METRIC
; #@! TA.AperFunction,Plated,PTH,ViaDrill
T1C0.400
; #@! TA.AperFunction,Plated,PTH,ComponentDrill
T2C0.900
; #@! TA.AperFunction,Plated,PTH,ComponentDrill
T3C1.000
; #@! TA.AperFunction,Plated,PTH,ComponentDrill
T4C3.045
; #@! TA.AperFunction,Plated,PTH,ComponentDrill
T5C3.100
%
G90
G05
T1
X85.9Y-106.91
X86.6Y-106.9
X87.3Y-106.9
X88.0Y-106.9
X88.7Y-106.9
X89.4Y-106.9
X90.1Y-106.9
X90.8Y-106.89
X91.5Y-106.89
X92.2Y-106.89
X92.9Y-106.89
X93.6Y-106.91
X94.3Y-106.91
X95.0Y-106.9
X95.7Y-106.9
X96.4Y-106.9
X97.1Y-106.9
X97.8Y-106.9
X98.5Y-106.9
X99.2Y-106.89
X99.88Y-80.73
X99.9Y-106.89
X99.907Y-122.175
X100.6Y-106.89
X101.3Y-106.89
X102.0Y-106.9
X102.444Y-80.094
X102.471Y-121.539
X102.7Y-106.9
X103.4Y-106.89
X104.1Y-106.89
X104.344Y-75.869
X104.371Y-117.314
X104.387Y-94.091
X104.415Y-135.536
X104.8Y-106.89
X105.5Y-106.89
X106.2Y-106.89
X106.9Y-106.89
X107.6Y-106.88
X108.3Y-106.88
X109.0Y-106.88
X109.088Y-90.1
X109.116Y-131.545
X109.7Y-106.88
X110.088Y-90.088
X110.115Y-131.533
X110.2Y-94.9
X110.227Y-136.345
X110.325Y-93.075
X110.352Y-134.52
X110.4Y-106.9
X111.1Y-106.9
X111.225Y-83.575
X111.225Y-84.675
X111.252Y-125.02
X111.252Y-126.12
X111.8Y-106.89
X112.014Y-79.756
X112.041Y-121.201
X112.5Y-106.89
X113.2Y-106.89
X113.9Y-106.89
X114.6Y-106.89
X115.275Y-94.375
X115.3Y-106.89
X115.302Y-135.82
X115.35Y-86.85
X115.377Y-128.295
X116.0Y-106.88
X116.7Y-106.88
X117.4Y-106.88
X117.703Y-77.572
X117.731Y-119.016
X118.1Y-106.88
X118.575Y-98.125
X118.602Y-139.57
X118.8Y-106.9
X119.375Y-87.125
X119.402Y-128.57
X119.5Y-106.9
X120.2Y-106.89
X120.475Y-76.925
X120.502Y-118.37
X120.85Y-78.45
X120.877Y-119.895
X120.9Y-106.89
X121.6Y-106.89
X122.3Y-106.89
X123.0Y-106.89
X123.7Y-106.89
X124.05Y-87.9
X124.078Y-129.345
X124.4Y-106.88
X125.1Y-106.88
X125.8Y-106.88
X126.5Y-106.88
X127.2Y-106.9
X127.9Y-106.9
X128.5Y-99.2
X128.528Y-140.645
X128.6Y-106.89
X129.3Y-106.89
X130.0Y-106.89
X130.7Y-106.89
X131.4Y-106.89
X132.1Y-106.89
X132.8Y-106.88
X133.5Y-106.88
X134.2Y-106.88
X134.9Y-106.88
X135.6Y-106.9
X136.3Y-106.9
X137.0Y-106.89
X137.7Y-106.89
X138.4Y-106.89
X138.9Y-95.825
X138.927Y-137.27
X139.1Y-106.89
X139.8Y-106.89
X140.5Y-106.89
X141.2Y-106.88
X141.9Y-106.88
X142.6Y-106.88
X143.3Y-106.88
X144.0Y-106.9
X144.7Y-106.9
X145.4Y-106.89
X146.1Y-106.89
X146.8Y-106.89
X147.5Y-106.89
X148.2Y-106.89
X148.9Y-106.89
X149.6Y-106.88
X150.3Y-106.88
X151.0Y-106.88
X151.7Y-106.88
X152.4Y-106.9
X153.1Y-106.9
T2
X141.135Y-80.72
X141.135Y-83.46
X141.135Y-86.2
X141.135Y-88.94
X141.135Y-91.68
X141.162Y-122.165
X141.162Y-124.905
X141.162Y-127.645
X141.162Y-130.385
X141.162Y-133.125
X143.675Y-82.09
X143.675Y-84.83
X143.675Y-87.57
X143.675Y-90.31
X143.702Y-123.535
X143.702Y-126.275
X143.702Y-129.015
X143.702Y-131.755
T3
X94.85Y-77.98
X94.85Y-80.75
X94.85Y-83.52
X94.85Y-86.29
X94.85Y-89.06
X94.85Y-91.83
X94.85Y-94.6
X94.877Y-119.425
X94.877Y-122.195
X94.877Y-124.965
X94.877Y-127.735
X94.877Y-130.505
X94.877Y-133.275
X94.877Y-136.045
X97.69Y-76.595
X97.69Y-79.365
X97.69Y-82.135
X97.69Y-84.905
X97.69Y-87.675
X97.69Y-90.445
X97.69Y-93.215
X97.69Y-95.985
X97.718Y-118.04
X97.718Y-120.81
X97.718Y-123.58
X97.718Y-126.35
X97.718Y-129.12
X97.718Y-131.89
X97.718Y-134.66
X97.718Y-137.43
X109.36Y-101.8
X109.36Y-104.34
X109.387Y-143.245
X109.387Y-145.785
X109.7Y-70.325
X109.727Y-111.77
X111.9Y-101.8
X111.9Y-104.34
X111.927Y-143.245
X111.927Y-145.785
X112.24Y-70.325
X112.267Y-111.77
X114.44Y-101.8
X114.44Y-104.34
X114.468Y-143.245
X114.468Y-145.785
X114.78Y-70.325
X114.807Y-111.77
X116.98Y-101.8
X116.98Y-104.34
X117.007Y-143.245
X117.007Y-145.785
X117.32Y-70.325
X117.347Y-111.77
X119.52Y-101.8
X119.52Y-104.34
X119.547Y-143.245
X119.547Y-145.785
X119.86Y-70.325
X119.887Y-111.77
X122.06Y-101.8
X122.06Y-104.34
X122.087Y-143.245
X122.087Y-145.785
X122.4Y-70.325
X122.427Y-111.77
X124.94Y-70.325
X124.968Y-111.77
T4
X96.27Y-69.63
X96.27Y-102.95
X96.297Y-111.075
X96.297Y-144.395
T5
X142.405Y-73.705
X142.405Y-98.695
X142.433Y-115.15
X142.433Y-140.14
T0
M30
