%TF.GenerationSoftware,KiCad,Pcbnew,7.0.7*%
%TF.CreationDate,2024-09-01T12:40:49+02:00*%
%TF.ProjectId,main,6d61696e-2e6b-4696-9361-645f70636258,rev?*%
%TF.SameCoordinates,Original*%
%TF.FileFunction,Paste,Top*%
%TF.FilePolarity,Positive*%
%FSLAX46Y46*%
G04 Gerber Fmt 4.6, Leading zero omitted, Abs format (unit mm)*
G04 Created by KiCad (PCBNEW 7.0.7) date 2024-09-01 12:40:49*
%MOMM*%
%LPD*%
G01*
G04 APERTURE LIST*
G04 Aperture macros list*
%AMRoundRect*
0 Rectangle with rounded corners*
0 $1 Rounding radius*
0 $2 $3 $4 $5 $6 $7 $8 $9 X,Y pos of 4 corners*
0 Add a 4 corners polygon primitive as box body*
4,1,4,$2,$3,$4,$5,$6,$7,$8,$9,$2,$3,0*
0 Add four circle primitives for the rounded corners*
1,1,$1+$1,$2,$3*
1,1,$1+$1,$4,$5*
1,1,$1+$1,$6,$7*
1,1,$1+$1,$8,$9*
0 Add four rect primitives between the rounded corners*
20,1,$1+$1,$2,$3,$4,$5,0*
20,1,$1+$1,$4,$5,$6,$7,0*
20,1,$1+$1,$6,$7,$8,$9,0*
20,1,$1+$1,$8,$9,$2,$3,0*%
G04 Aperture macros list end*
%ADD10R,1.900000X2.400000*%
%ADD11R,0.279400X1.361440*%
%ADD12R,1.361440X0.279400*%
%ADD13RoundRect,0.250000X-1.500000X-0.550000X1.500000X-0.550000X1.500000X0.550000X-1.500000X0.550000X0*%
%ADD14RoundRect,0.200000X0.275000X-0.200000X0.275000X0.200000X-0.275000X0.200000X-0.275000X-0.200000X0*%
%ADD15R,2.700000X8.000000*%
%ADD16RoundRect,0.225000X0.225000X0.250000X-0.225000X0.250000X-0.225000X-0.250000X0.225000X-0.250000X0*%
%ADD17RoundRect,0.218750X0.218750X0.256250X-0.218750X0.256250X-0.218750X-0.256250X0.218750X-0.256250X0*%
%ADD18RoundRect,0.135000X-0.135000X-0.185000X0.135000X-0.185000X0.135000X0.185000X-0.135000X0.185000X0*%
%ADD19RoundRect,0.135000X0.135000X0.185000X-0.135000X0.185000X-0.135000X-0.185000X0.135000X-0.185000X0*%
%ADD20RoundRect,0.150000X0.587500X0.150000X-0.587500X0.150000X-0.587500X-0.150000X0.587500X-0.150000X0*%
%ADD21RoundRect,0.200000X-0.275000X0.200000X-0.275000X-0.200000X0.275000X-0.200000X0.275000X0.200000X0*%
%ADD22RoundRect,0.225000X0.250000X-0.225000X0.250000X0.225000X-0.250000X0.225000X-0.250000X-0.225000X0*%
%ADD23RoundRect,0.200000X0.200000X0.275000X-0.200000X0.275000X-0.200000X-0.275000X0.200000X-0.275000X0*%
%ADD24RoundRect,0.225000X-0.225000X-0.250000X0.225000X-0.250000X0.225000X0.250000X-0.225000X0.250000X0*%
%ADD25RoundRect,0.225000X-0.250000X0.225000X-0.250000X-0.225000X0.250000X-0.225000X0.250000X0.225000X0*%
%ADD26RoundRect,0.200000X-0.200000X-0.275000X0.200000X-0.275000X0.200000X0.275000X-0.200000X0.275000X0*%
%ADD27RoundRect,0.150000X-0.587500X-0.150000X0.587500X-0.150000X0.587500X0.150000X-0.587500X0.150000X0*%
%ADD28RoundRect,0.150000X0.150000X-0.587500X0.150000X0.587500X-0.150000X0.587500X-0.150000X-0.587500X0*%
%ADD29RoundRect,0.250000X1.500000X0.550000X-1.500000X0.550000X-1.500000X-0.550000X1.500000X-0.550000X0*%
%ADD30RoundRect,0.150000X-0.150000X0.587500X-0.150000X-0.587500X0.150000X-0.587500X0.150000X0.587500X0*%
%ADD31R,0.650000X1.525000*%
%ADD32R,1.525000X0.650000*%
%ADD33R,2.710000X3.350000*%
G04 APERTURE END LIST*
D10*
%TO.C,Y2*%
X116177500Y-137695000D03*
X120277500Y-137695000D03*
%TD*%
D11*
%TO.C,U1*%
X115202500Y-131269640D03*
X115702499Y-131269640D03*
X116202501Y-131269640D03*
X116702500Y-131269640D03*
X117202499Y-131269640D03*
X117702500Y-131269640D03*
X118202500Y-131269640D03*
X118702501Y-131269640D03*
X119202500Y-131269640D03*
X119702499Y-131269640D03*
X120202501Y-131269640D03*
X120702500Y-131269640D03*
D12*
X122227348Y-129744820D03*
X122227348Y-129244821D03*
X122227348Y-128744819D03*
X122227348Y-128244820D03*
X122227348Y-127744821D03*
X122227348Y-127244820D03*
X122227348Y-126744820D03*
X122227348Y-126244819D03*
X122227348Y-125744820D03*
X122227348Y-125244821D03*
X122227348Y-124744819D03*
X122227348Y-124244820D03*
D11*
X120702500Y-122720000D03*
X120202501Y-122720000D03*
X119702499Y-122720000D03*
X119202500Y-122720000D03*
X118702501Y-122720000D03*
X118202500Y-122720000D03*
X117702500Y-122720000D03*
X117202499Y-122720000D03*
X116702500Y-122720000D03*
X116202501Y-122720000D03*
X115702499Y-122720000D03*
X115202500Y-122720000D03*
D12*
X113677652Y-124244820D03*
X113677652Y-124744819D03*
X113677652Y-125244821D03*
X113677652Y-125744820D03*
X113677652Y-126244819D03*
X113677652Y-126744820D03*
X113677652Y-127244820D03*
X113677652Y-127744821D03*
X113677652Y-128244820D03*
X113677652Y-128744819D03*
X113677652Y-129244821D03*
X113677652Y-129744820D03*
%TD*%
D13*
%TO.C,C31*%
X129605500Y-138190000D03*
X135205500Y-138190000D03*
%TD*%
D14*
%TO.C,R1*%
X109227500Y-135370000D03*
X109227500Y-133720000D03*
%TD*%
D15*
%TO.C,L1*%
X129855500Y-129390000D03*
X135155500Y-129390000D03*
%TD*%
D16*
%TO.C,C29*%
X126480500Y-134245000D03*
X124930500Y-134245000D03*
%TD*%
D17*
%TO.C,D3*%
X133265000Y-145020000D03*
X131690000Y-145020000D03*
%TD*%
D18*
%TO.C,C4*%
X116542500Y-140895000D03*
X117562500Y-140895000D03*
%TD*%
D19*
%TO.C,C10*%
X110577500Y-128245000D03*
X109557500Y-128245000D03*
%TD*%
%TO.C,C3*%
X119537500Y-140895000D03*
X118517500Y-140895000D03*
%TD*%
D14*
%TO.C,R5*%
X101294250Y-136319250D03*
X101294250Y-134669250D03*
%TD*%
D20*
%TO.C,Q2*%
X106908750Y-115663750D03*
X106908750Y-113763750D03*
X105033750Y-114713750D03*
%TD*%
D21*
%TO.C,R7*%
X107465750Y-134711050D03*
X107465750Y-136361050D03*
%TD*%
D22*
%TO.C,C16*%
X100946250Y-125438750D03*
X100946250Y-123888750D03*
%TD*%
D23*
%TO.C,R21*%
X112002500Y-119495000D03*
X110352500Y-119495000D03*
%TD*%
D14*
%TO.C,R24*%
X102546250Y-125463750D03*
X102546250Y-123813750D03*
%TD*%
D24*
%TO.C,C18*%
X139202500Y-110295000D03*
X140752500Y-110295000D03*
%TD*%
D25*
%TO.C,C15*%
X136502500Y-119995000D03*
X136502500Y-121545000D03*
%TD*%
D22*
%TO.C,C26*%
X125555500Y-118890000D03*
X125555500Y-117340000D03*
%TD*%
D25*
%TO.C,C25*%
X124377500Y-121045000D03*
X124377500Y-122595000D03*
%TD*%
D14*
%TO.C,R27*%
X102171250Y-119238750D03*
X102171250Y-117588750D03*
%TD*%
D16*
%TO.C,C21*%
X131427500Y-116070000D03*
X129877500Y-116070000D03*
%TD*%
D14*
%TO.C,R13*%
X127205500Y-118915000D03*
X127205500Y-117265000D03*
%TD*%
D23*
%TO.C,R14*%
X127127500Y-115770000D03*
X125477500Y-115770000D03*
%TD*%
D21*
%TO.C,R26*%
X108771250Y-117488750D03*
X108771250Y-119138750D03*
%TD*%
D23*
%TO.C,R11*%
X131543500Y-123390000D03*
X129893500Y-123390000D03*
%TD*%
%TO.C,R12*%
X127530500Y-120865000D03*
X125880500Y-120865000D03*
%TD*%
D26*
%TO.C,R15*%
X134827500Y-145045000D03*
X136477500Y-145045000D03*
%TD*%
D27*
%TO.C,Q4*%
X101324250Y-137909250D03*
X101324250Y-139809250D03*
X103199250Y-138859250D03*
%TD*%
D18*
%TO.C,C2*%
X116842500Y-133470000D03*
X117862500Y-133470000D03*
%TD*%
D26*
%TO.C,R29*%
X104546250Y-111013750D03*
X106196250Y-111013750D03*
%TD*%
D21*
%TO.C,R8*%
X103072250Y-134732250D03*
X103072250Y-136382250D03*
%TD*%
D23*
%TO.C,R22*%
X111452500Y-122845000D03*
X109802500Y-122845000D03*
%TD*%
D28*
%TO.C,D2*%
X103646250Y-132938750D03*
X105546250Y-132938750D03*
X104596250Y-131063750D03*
%TD*%
D24*
%TO.C,C20*%
X133130500Y-123340000D03*
X134680500Y-123340000D03*
%TD*%
D27*
%TO.C,Q3*%
X105595750Y-137909250D03*
X105595750Y-139809250D03*
X107470750Y-138859250D03*
%TD*%
D29*
%TO.C,C8*%
X136402500Y-111720000D03*
X131002500Y-111720000D03*
%TD*%
D18*
%TO.C,C1*%
X115517500Y-134495000D03*
X116537500Y-134495000D03*
%TD*%
D23*
%TO.C,R9*%
X106882250Y-141653250D03*
X105232250Y-141653250D03*
%TD*%
D26*
%TO.C,R23*%
X110327500Y-117895000D03*
X111977500Y-117895000D03*
%TD*%
D21*
%TO.C,R3*%
X107452500Y-131063750D03*
X107452500Y-132713750D03*
%TD*%
D17*
%TO.C,D4*%
X140490000Y-145070000D03*
X138915000Y-145070000D03*
%TD*%
D30*
%TO.C,D1*%
X105621250Y-119276250D03*
X103721250Y-119276250D03*
X104671250Y-121151250D03*
%TD*%
D26*
%TO.C,R30*%
X101246250Y-111013750D03*
X102896250Y-111013750D03*
%TD*%
D21*
%TO.C,R2*%
X109802500Y-124270000D03*
X109802500Y-125920000D03*
%TD*%
D16*
%TO.C,C7*%
X102525050Y-128671250D03*
X100975050Y-128671250D03*
%TD*%
D23*
%TO.C,R10*%
X103389250Y-141653250D03*
X101739250Y-141653250D03*
%TD*%
D14*
%TO.C,R25*%
X107171250Y-119138750D03*
X107171250Y-117488750D03*
%TD*%
D18*
%TO.C,C5*%
X123917500Y-127245000D03*
X124937500Y-127245000D03*
%TD*%
D16*
%TO.C,C24*%
X127475500Y-122590000D03*
X125925500Y-122590000D03*
%TD*%
D20*
%TO.C,Q1*%
X102808750Y-115663750D03*
X102808750Y-113763750D03*
X100933750Y-114713750D03*
%TD*%
D19*
%TO.C,C9*%
X111337500Y-127245000D03*
X110317500Y-127245000D03*
%TD*%
D16*
%TO.C,C30*%
X126402500Y-132645000D03*
X124852500Y-132645000D03*
%TD*%
D22*
%TO.C,C19*%
X136502500Y-118495000D03*
X136502500Y-116945000D03*
%TD*%
D14*
%TO.C,R28*%
X100571250Y-119238750D03*
X100571250Y-117588750D03*
%TD*%
D21*
%TO.C,R6*%
X105814750Y-134711050D03*
X105814750Y-136361050D03*
%TD*%
D23*
%TO.C,R4*%
X102575050Y-127013750D03*
X100925050Y-127013750D03*
%TD*%
D26*
%TO.C,R32*%
X142027500Y-145070000D03*
X143677500Y-145070000D03*
%TD*%
D18*
%TO.C,C6*%
X123917500Y-128245000D03*
X124937500Y-128245000D03*
%TD*%
D16*
%TO.C,C28*%
X126402500Y-136445000D03*
X124852500Y-136445000D03*
%TD*%
D31*
%TO.C,OPAMPS1*%
X104346250Y-128897750D03*
X105616250Y-128897750D03*
X106886250Y-128897750D03*
X108156250Y-128897750D03*
X108156250Y-123473750D03*
X106886250Y-123473750D03*
X105616250Y-123473750D03*
X104346250Y-123473750D03*
%TD*%
D32*
%TO.C,IC2*%
X134718500Y-121600000D03*
X134718500Y-120330000D03*
X134718500Y-119060000D03*
X134718500Y-117790000D03*
X129342500Y-117790000D03*
X129342500Y-119060000D03*
X129342500Y-120330000D03*
X129342500Y-121600000D03*
D33*
X132030500Y-119695000D03*
%TD*%
D17*
%TO.C,D5*%
X145815000Y-110095000D03*
X144240000Y-110095000D03*
%TD*%
D26*
%TO.C,R33*%
X148192500Y-110095000D03*
X149842500Y-110095000D03*
%TD*%
D10*
%TO.C,Y2*%
X116150000Y-96250000D03*
X120250000Y-96250000D03*
%TD*%
D11*
%TO.C,U1*%
X115175000Y-89824640D03*
X115674999Y-89824640D03*
X116175001Y-89824640D03*
X116675000Y-89824640D03*
X117174999Y-89824640D03*
X117675000Y-89824640D03*
X118175000Y-89824640D03*
X118675001Y-89824640D03*
X119175000Y-89824640D03*
X119674999Y-89824640D03*
X120175001Y-89824640D03*
X120675000Y-89824640D03*
D12*
X122199848Y-88299820D03*
X122199848Y-87799821D03*
X122199848Y-87299819D03*
X122199848Y-86799820D03*
X122199848Y-86299821D03*
X122199848Y-85799820D03*
X122199848Y-85299820D03*
X122199848Y-84799819D03*
X122199848Y-84299820D03*
X122199848Y-83799821D03*
X122199848Y-83299819D03*
X122199848Y-82799820D03*
D11*
X120675000Y-81275000D03*
X120175001Y-81275000D03*
X119674999Y-81275000D03*
X119175000Y-81275000D03*
X118675001Y-81275000D03*
X118175000Y-81275000D03*
X117675000Y-81275000D03*
X117174999Y-81275000D03*
X116675000Y-81275000D03*
X116175001Y-81275000D03*
X115674999Y-81275000D03*
X115175000Y-81275000D03*
D12*
X113650152Y-82799820D03*
X113650152Y-83299819D03*
X113650152Y-83799821D03*
X113650152Y-84299820D03*
X113650152Y-84799819D03*
X113650152Y-85299820D03*
X113650152Y-85799820D03*
X113650152Y-86299821D03*
X113650152Y-86799820D03*
X113650152Y-87299819D03*
X113650152Y-87799821D03*
X113650152Y-88299820D03*
%TD*%
D26*
%TO.C,R33*%
X149815000Y-68650000D03*
X148165000Y-68650000D03*
%TD*%
D31*
%TO.C,OPAMPS1*%
X104318750Y-87452750D03*
X105588750Y-87452750D03*
X106858750Y-87452750D03*
X108128750Y-87452750D03*
X108128750Y-82028750D03*
X106858750Y-82028750D03*
X105588750Y-82028750D03*
X104318750Y-82028750D03*
%TD*%
D32*
%TO.C,IC2*%
X134691000Y-80155000D03*
X134691000Y-78885000D03*
X134691000Y-77615000D03*
X134691000Y-76345000D03*
X129315000Y-76345000D03*
X129315000Y-77615000D03*
X129315000Y-78885000D03*
X129315000Y-80155000D03*
D33*
X132003000Y-78250000D03*
%TD*%
D17*
%TO.C,D5*%
X145787500Y-68650000D03*
X144212500Y-68650000D03*
%TD*%
D13*
%TO.C,C31*%
X129578000Y-96745000D03*
X135178000Y-96745000D03*
%TD*%
D22*
%TO.C,C19*%
X136475000Y-77050000D03*
X136475000Y-75500000D03*
%TD*%
D16*
%TO.C,C30*%
X126375000Y-91200000D03*
X124825000Y-91200000D03*
%TD*%
D19*
%TO.C,C9*%
X111310000Y-85800000D03*
X110290000Y-85800000D03*
%TD*%
D20*
%TO.C,Q1*%
X102781250Y-74218750D03*
X102781250Y-72318750D03*
X100906250Y-73268750D03*
%TD*%
D16*
%TO.C,C24*%
X127448000Y-81145000D03*
X125898000Y-81145000D03*
%TD*%
%TO.C,C28*%
X126375000Y-95000000D03*
X124825000Y-95000000D03*
%TD*%
D14*
%TO.C,R28*%
X100543750Y-77793750D03*
X100543750Y-76143750D03*
%TD*%
D18*
%TO.C,C6*%
X123890000Y-86800000D03*
X124910000Y-86800000D03*
%TD*%
%TO.C,C5*%
X123890000Y-85800000D03*
X124910000Y-85800000D03*
%TD*%
D26*
%TO.C,R32*%
X142000000Y-103625000D03*
X143650000Y-103625000D03*
%TD*%
D23*
%TO.C,R4*%
X102547550Y-85568750D03*
X100897550Y-85568750D03*
%TD*%
D21*
%TO.C,R6*%
X105787250Y-93266050D03*
X105787250Y-94916050D03*
%TD*%
D14*
%TO.C,R25*%
X107143750Y-77693750D03*
X107143750Y-76043750D03*
%TD*%
D23*
%TO.C,R10*%
X103361750Y-100208250D03*
X101711750Y-100208250D03*
%TD*%
D18*
%TO.C,C1*%
X115490000Y-93050000D03*
X116510000Y-93050000D03*
%TD*%
D26*
%TO.C,R23*%
X110300000Y-76450000D03*
X111950000Y-76450000D03*
%TD*%
D28*
%TO.C,D2*%
X103618750Y-91493750D03*
X105518750Y-91493750D03*
X104568750Y-89618750D03*
%TD*%
D21*
%TO.C,R8*%
X103044750Y-93287250D03*
X103044750Y-94937250D03*
%TD*%
D26*
%TO.C,R30*%
X101218750Y-69568750D03*
X102868750Y-69568750D03*
%TD*%
D23*
%TO.C,R22*%
X111425000Y-81400000D03*
X109775000Y-81400000D03*
%TD*%
D26*
%TO.C,R29*%
X104518750Y-69568750D03*
X106168750Y-69568750D03*
%TD*%
D21*
%TO.C,R2*%
X109775000Y-82825000D03*
X109775000Y-84475000D03*
%TD*%
D29*
%TO.C,C8*%
X136375000Y-70275000D03*
X130975000Y-70275000D03*
%TD*%
D24*
%TO.C,C20*%
X133103000Y-81895000D03*
X134653000Y-81895000D03*
%TD*%
D27*
%TO.C,Q3*%
X105568250Y-96464250D03*
X105568250Y-98364250D03*
X107443250Y-97414250D03*
%TD*%
D18*
%TO.C,C2*%
X116815000Y-92025000D03*
X117835000Y-92025000D03*
%TD*%
D27*
%TO.C,Q4*%
X101296750Y-96464250D03*
X101296750Y-98364250D03*
X103171750Y-97414250D03*
%TD*%
D23*
%TO.C,R9*%
X106854750Y-100208250D03*
X105204750Y-100208250D03*
%TD*%
D26*
%TO.C,R15*%
X134800000Y-103600000D03*
X136450000Y-103600000D03*
%TD*%
D16*
%TO.C,C7*%
X102497550Y-87226250D03*
X100947550Y-87226250D03*
%TD*%
D23*
%TO.C,R12*%
X127503000Y-79420000D03*
X125853000Y-79420000D03*
%TD*%
%TO.C,R11*%
X131516000Y-81945000D03*
X129866000Y-81945000D03*
%TD*%
D17*
%TO.C,D4*%
X140462500Y-103625000D03*
X138887500Y-103625000D03*
%TD*%
D30*
%TO.C,D1*%
X105593750Y-77831250D03*
X103693750Y-77831250D03*
X104643750Y-79706250D03*
%TD*%
D21*
%TO.C,R26*%
X108743750Y-76043750D03*
X108743750Y-77693750D03*
%TD*%
D23*
%TO.C,R14*%
X127100000Y-74325000D03*
X125450000Y-74325000D03*
%TD*%
D21*
%TO.C,R3*%
X107425000Y-89618750D03*
X107425000Y-91268750D03*
%TD*%
D24*
%TO.C,C18*%
X139175000Y-68850000D03*
X140725000Y-68850000D03*
%TD*%
D25*
%TO.C,C25*%
X124350000Y-79600000D03*
X124350000Y-81150000D03*
%TD*%
%TO.C,C15*%
X136475000Y-78550000D03*
X136475000Y-80100000D03*
%TD*%
D14*
%TO.C,R13*%
X127178000Y-77470000D03*
X127178000Y-75820000D03*
%TD*%
D21*
%TO.C,R7*%
X107438250Y-93266050D03*
X107438250Y-94916050D03*
%TD*%
D20*
%TO.C,Q2*%
X106881250Y-74218750D03*
X106881250Y-72318750D03*
X105006250Y-73268750D03*
%TD*%
D23*
%TO.C,R21*%
X111975000Y-78050000D03*
X110325000Y-78050000D03*
%TD*%
D14*
%TO.C,R5*%
X101266750Y-94874250D03*
X101266750Y-93224250D03*
%TD*%
D19*
%TO.C,C3*%
X119510000Y-99450000D03*
X118490000Y-99450000D03*
%TD*%
D14*
%TO.C,R24*%
X102518750Y-84018750D03*
X102518750Y-82368750D03*
%TD*%
D18*
%TO.C,C4*%
X116515000Y-99450000D03*
X117535000Y-99450000D03*
%TD*%
D22*
%TO.C,C26*%
X125528000Y-77445000D03*
X125528000Y-75895000D03*
%TD*%
%TO.C,C16*%
X100918750Y-83993750D03*
X100918750Y-82443750D03*
%TD*%
D19*
%TO.C,C10*%
X110550000Y-86800000D03*
X109530000Y-86800000D03*
%TD*%
D16*
%TO.C,C29*%
X126453000Y-92800000D03*
X124903000Y-92800000D03*
%TD*%
D17*
%TO.C,D3*%
X133237500Y-103575000D03*
X131662500Y-103575000D03*
%TD*%
D15*
%TO.C,L1*%
X129828000Y-87945000D03*
X135128000Y-87945000D03*
%TD*%
D16*
%TO.C,C21*%
X131400000Y-74625000D03*
X129850000Y-74625000D03*
%TD*%
D14*
%TO.C,R1*%
X109200000Y-93925000D03*
X109200000Y-92275000D03*
%TD*%
%TO.C,R27*%
X102143750Y-77793750D03*
X102143750Y-76143750D03*
%TD*%
M02*
